<?xml version="1.0" encoding="UTF-8"?> <svg xmlns="http://www.w3.org/2000/svg" width="114" height="38" viewBox="0 0 114 38" fill="none"><path d="M21.8066 0C22.137 0 22.3421 0.501302 22.4219 1.50391V1.57227L21.3281 9.29688C20.9635 12.4642 20.6217 16.5202 20.3027 21.4648H20.3711C21.4193 21.4193 22.6953 21.0091 24.1992 20.2344C24.1992 20.1546 24.3587 20.109 24.6777 20.0977H24.7461C25.0195 20.2458 25.1562 20.4964 25.1562 20.8496V21.3281C25.1562 22.7637 23.5384 23.7663 20.3027 24.3359C20.3027 26.6715 21.0319 28.973 22.4902 31.2402C23.0029 31.7985 23.2764 32.2314 23.3105 32.5391C23.3105 33.3594 22.832 34.0658 21.875 34.6582H21.5332C20.918 34.6582 20.0065 33.291 18.7988 30.5566C18.1608 28.5286 17.8418 26.569 17.8418 24.6777L15.791 24.7461H14.3555L11.8262 24.6777C10.4248 28.4945 8.62467 31.9124 6.42578 34.9316C5.25228 36.2988 4.0446 36.9824 2.80273 36.9824C1.76595 36.9824 0.831706 36.4811 0 35.4785V35.2051C0.364583 33.8379 0.934245 33.1543 1.70898 33.1543H1.77734C1.94824 33.1543 2.31283 33.4049 2.87109 33.9062L3.21289 33.9746H3.62305C5.22949 33.9746 7.39421 30.8073 10.1172 24.4727H9.98047C4.28385 24.0283 1.43555 22.6839 1.43555 20.4395C1.43555 19.3457 2.23307 18.6165 3.82812 18.252L5.05859 18.1152C6.5625 18.2406 7.31445 18.4684 7.31445 18.7988L7.10938 19.0039H5.40039C4.0332 19.0723 3.34961 19.2546 3.34961 19.5508V19.9609C3.98763 20.6445 4.73958 20.9863 5.60547 20.9863C7.64486 21.3053 9.55892 21.4648 11.3477 21.4648C14.082 16.0075 16.8392 9.85514 19.6191 3.00781C20.5078 1.0026 21.1458 0 21.5332 0H21.8066ZM20.0977 5.40039C19.3229 7.36003 16.9987 12.7832 13.125 21.6699H13.1934L14.6289 21.7383H17.9102L20.166 5.46875V5.40039H20.0977Z" fill="#35734A"></path><path d="M28.0957 17.0557C28.3236 17.1354 28.4375 17.2493 28.4375 17.3975L27.7539 29.5654H28.5059C31.0238 29.5654 33.5986 28.1071 36.2305 25.1904C36.971 24.2904 37.5179 22.8548 37.8711 20.8838C38.6458 18.4229 39.3294 17.1924 39.9219 17.1924H40.332C40.5599 17.3063 40.6738 17.4886 40.6738 17.7393C39.4434 20.7357 38.8281 23.3105 38.8281 25.4639C38.8281 28.0273 39.6484 30.5111 41.2891 32.915L41.3574 33.1885C41.0498 34.2822 40.6169 34.8291 40.0586 34.8291C39.6484 34.8291 38.9421 33.667 37.9395 31.3428C37.347 29.7819 37.0508 28.1641 37.0508 26.4893H36.9824C35.1595 28.9388 32.7669 30.6478 29.8047 31.6162C28.9274 31.7985 28.1755 31.8896 27.5488 31.8896V31.958C27.5488 34.2367 27.2982 35.5583 26.7969 35.9229C26.4095 36.2874 26.0905 36.4697 25.8398 36.4697C25.6576 36.3786 25.5664 36.2646 25.5664 36.1279L26.7285 18.2861C27.2868 17.4658 27.7425 17.0557 28.0957 17.0557Z" fill="#820000"></path><path d="M43.6475 15.8081H43.7158C43.9437 15.9448 44.0576 16.1043 44.0576 16.2866L43.4424 24.8999V24.9683H43.5107C44.5133 23.4188 45.9261 22.12 47.749 21.0718C50.0732 19.8869 52.238 19.2944 54.2432 19.2944H54.585C54.904 19.2944 55.0635 19.4539 55.0635 19.7729V19.9097C54.8926 21.0034 54.3457 21.5503 53.4229 21.5503C51.167 21.5503 48.7288 22.4162 46.1084 24.1479C44.6045 25.3784 43.8525 26.7228 43.8525 28.1812C43.8525 30.0382 44.6956 31.3826 46.3818 32.2144C46.9059 32.3511 47.4528 32.4194 48.0225 32.4194H48.5693C50.6999 32.4194 52.8418 31.3713 54.9951 29.2749H55.0635V29.4116C54.0723 31.6219 52.0671 33.3081 49.0479 34.4702C48.3301 34.6525 47.6921 34.7437 47.1338 34.7437C45.721 34.7437 44.4906 34.174 43.4424 33.0347L43.5107 33.5132L43.6475 36.4526C43.6475 36.8856 43.2601 37.3413 42.4854 37.8198H42.1436C41.779 37.8198 41.5967 35.4272 41.5967 30.6421V29.6167C41.5967 25.4582 41.8473 21.1743 42.3486 16.7651C42.7474 16.1271 43.1803 15.8081 43.6475 15.8081Z" fill="#2A6DB1"></path><path d="M66.7188 16.3037C68.0176 16.3037 68.9062 16.9417 69.3848 18.2178L69.5215 19.585C69.5215 23.0713 65.944 25.9652 58.7891 28.2666C59.6777 31.1377 61.7741 32.5732 65.0781 32.5732C67.6416 32.5732 69.9658 31.4567 72.0508 29.2236L72.1191 29.292V29.3604C69.5671 32.9606 66.6276 34.7607 63.3008 34.7607C61.1133 34.7607 59.2448 33.7354 57.6953 31.6846C56.9206 30.5225 56.5332 29.1325 56.5332 27.5146C56.5332 24.3132 57.9004 21.3965 60.6348 18.7646C63.0046 17.124 65.0326 16.3037 66.7188 16.3037ZM58.584 26.7627C64.6452 24.8372 67.6758 22.7409 67.6758 20.4736C67.6758 19.2318 67.0833 18.5254 65.8984 18.3545H65.6934C64.0186 18.3545 62.1045 19.5394 59.9512 21.9092C59.0397 23.6182 58.584 25.236 58.584 26.7627Z" fill="#80BCB7"></path><path d="M73.5547 13.9795C74.1016 13.9795 74.7852 15.0505 75.6055 17.1924C75.8789 18.1494 76.0156 19.1292 76.0156 20.1318V21.3623H76.084C76.2549 20.8496 76.8701 20.0977 77.9297 19.1064C79.0576 18.195 80.1286 17.7393 81.1426 17.7393C82.4072 17.7393 83.5238 18.5596 84.4922 20.2002L84.6289 20.8838H84.6973C85.4948 19.0609 86.5885 18.1494 87.9785 18.1494C89.7786 18.1494 90.9863 18.8786 91.6016 20.3369C91.9661 21.1914 92.1484 22.3535 92.1484 23.8232V26.9678C92.1484 30.1693 92.8548 31.9466 94.2676 32.2998C95.2246 32.391 95.7031 32.6188 95.7031 32.9834V33.1885C95.4639 34.2367 95.0309 34.7607 94.4043 34.7607C93.0827 34.7607 92.0117 34.0544 91.1914 32.6416C90.6901 31.4453 90.4395 30.1465 90.4395 28.7451L90.7812 24.3018C90.7812 22.0231 90.0065 20.8838 88.457 20.8838H88.252C86.9076 20.8838 86.0872 21.5902 85.791 23.0029C85.096 30.3857 84.6403 34.0771 84.4238 34.0771C84.0479 34.5329 83.6605 34.7607 83.2617 34.7607C83.0339 34.6468 82.9199 34.4645 82.9199 34.2139C83.3301 30.8187 83.5352 28.335 83.5352 26.7627C83.5352 23.5384 82.9883 21.4648 81.8945 20.542C81.4958 20.3597 81.0856 20.2686 80.6641 20.2686H80.3223C77.4967 20.2686 75.6283 23.4131 74.7168 29.7021C74.2725 32.71 73.9535 34.2139 73.7598 34.2139C73.3724 34.5785 73.0534 34.7607 72.8027 34.7607C72.5749 34.7607 72.4154 34.5785 72.3242 34.2139L74.1699 22.4561L74.2383 21.2256C74.2383 19.1976 73.6003 17.3975 72.3242 15.8252V15.5518C72.3242 14.8682 72.7344 14.3441 73.5547 13.9795Z" fill="#EFA8C8"></path><path d="M104.351 18.2861H104.624C106.812 18.2861 108.315 19.5622 109.136 22.1143L109.272 22.9346H109.341C110.286 20.9294 111.061 19.9268 111.665 19.9268C111.756 19.9268 111.802 19.9951 111.802 20.1318C110.583 21.9548 109.854 23.9827 109.614 26.2158C109.341 27.4007 109.204 28.4261 109.204 29.292C109.204 30.682 109.774 31.6162 110.913 32.0947C112.212 32.3112 112.941 32.4935 113.101 32.6416L113.306 33.2568C113.306 33.8037 112.873 34.1227 112.007 34.2139C110.218 34.2139 108.988 33.3024 108.315 31.4795C108.167 30.7048 108.053 30.3174 107.974 30.3174C106.504 33.2796 104.385 34.7607 101.616 34.7607C99.2692 34.7607 97.5374 33.5986 96.4209 31.2744C96.0563 30.4313 95.874 29.5426 95.874 28.6084V28.1982C95.874 24.974 97.2868 22.194 100.112 19.8584C101.559 18.8102 102.972 18.2861 104.351 18.2861ZM97.7197 27.1729V27.583C97.7197 30.0326 98.8818 31.5592 101.206 32.1631L102.368 32.2998C104.84 32.2998 106.572 30.682 107.563 27.4463L107.769 25.3955C107.769 22.7523 106.812 21.1117 104.897 20.4736C104.419 20.3369 103.94 20.2686 103.462 20.2686H103.052C100.819 20.2686 99.1097 22.0003 97.9248 25.4639C97.7881 26.0905 97.7197 26.6602 97.7197 27.1729Z" fill="#67417D"></path></svg> 