<?xml version="1.0" encoding="UTF-8"?> <svg xmlns="http://www.w3.org/2000/svg" width="188" height="65" viewBox="0 0 188 65" fill="none"><path d="M36.5723 0C37.1419 0.478516 37.8255 2.1875 38.623 5.12695C39.3066 8.36263 39.6484 10.9147 39.6484 12.7832C43.4993 14.0934 47.0312 15.8708 50.2441 18.1152C51.5544 18.89 53.3773 20.5306 55.7129 23.0371C57.4674 25.1449 58.5156 27.2412 58.8574 29.3262V32.6074C58.8574 33.8721 58.0599 35.6494 56.4648 37.9395C54.79 39.7168 52.762 40.6055 50.3809 40.6055H50.2441C46.7806 40.6055 42.5423 38.6003 37.5293 34.5898C36.5153 38.6914 34.8519 40.7422 32.5391 40.7422H32.1973C30.6136 40.7422 29.3831 39.9219 28.5059 38.2812C28.2324 37.7002 28.0957 37.1305 28.0957 36.5723V35.957C28.0957 33.9632 29.0755 32.2998 31.0352 30.9668C31.8669 30.5111 32.6872 30.2832 33.4961 30.2832C34.3848 30.2832 35.5013 30.5339 36.8457 31.0352V30.9668C37.5293 26.6715 37.8711 22.4788 37.8711 18.3887L37.8027 15.1074C35.2962 14.2188 31.6048 13.3984 26.7285 12.6465C22.4788 12.0085 18.8102 11.6895 15.7227 11.6895H13.8086C7.5651 11.6895 3.69141 12.5553 2.1875 14.2871C1.95964 14.8226 1.8457 15.1872 1.8457 15.3809C1.8457 17.9557 3.62305 19.7559 7.17773 20.7812L7.65625 21.123V21.3281C7.65625 21.5104 7.38281 21.6016 6.83594 21.6016C5.06999 21.6016 3.15592 20.6901 1.09375 18.8672C0.364583 17.8988 0 17.0101 0 16.2012V15.4492C0 12.9085 2.11914 11.0628 6.35742 9.91211C8.69303 9.36523 11.7008 9.0918 15.3809 9.0918C23.584 9.0918 30.9896 10.0944 37.5977 12.0996C37.3698 9.22852 36.9596 6.74479 36.3672 4.64844L35.2734 1.91406C35.5355 0.638021 35.9684 0 36.5723 0ZM39.7168 15.791C39.7168 21.3167 39.2383 26.6488 38.2812 31.7871L44.502 35.957C47.1452 37.4154 49.4466 38.1445 51.4062 38.1445C54.0267 38.1445 55.8268 36.6862 56.8066 33.7695C56.9434 33.2227 57.0117 32.7214 57.0117 32.2656V31.8555C57.0117 28.5059 54.8698 25.1107 50.5859 21.6699C48.4554 20.0863 46.359 18.7874 44.2969 17.7734C42.9753 17.1354 41.4486 16.4746 39.7168 15.791ZM30.0098 34.9316C30.0098 36.1735 30.6022 37.1533 31.7871 37.8711C32.3568 38.099 32.8125 38.2129 33.1543 38.2129H33.4277C34.4417 38.2129 35.376 36.7318 36.2305 33.7695C35.2393 33.2227 34.2139 32.9492 33.1543 32.9492H32.9492C31.32 32.9492 30.363 33.4733 30.0781 34.5215L30.0098 34.9316Z" fill="#5157AD"></path><path d="M69.436 23.3618C73.0933 23.3618 75.5314 25.3442 76.7505 29.3091C77.1151 30.6307 77.2974 31.7928 77.2974 32.7954C77.2974 35.5754 76.0441 37.854 73.5376 39.6313C71.9767 40.3605 70.4956 40.7251 69.0942 40.7251C67.8752 40.7251 66.5308 40.4744 65.061 39.9731V40.0415C64.5597 47.9142 64.0584 53.7476 63.5571 57.5415C63.147 59.3302 62.6912 60.6746 62.1899 61.5747C61.1304 63.2609 59.9227 64.104 58.5669 64.104H58.02L57.8149 63.8989V63.6938C57.8149 63.6141 58.2023 63.3634 58.9771 62.9419C60.0366 61.8937 60.743 60.5493 61.0962 58.9087C61.7798 56.1515 62.6685 45.4875 63.7622 26.9165C63.7622 26.0734 64.0356 25.5037 64.5825 25.2075C65.7902 23.9771 67.408 23.3618 69.436 23.3618ZM64.9927 37.1021L64.9243 37.1704C65.9155 37.7173 67.1232 37.9907 68.5474 37.9907H68.9575C72.0109 37.9907 74.0845 36.6919 75.1782 34.0942L75.3833 32.5903C75.3833 30.1408 74.1073 28.1584 71.5552 26.6431C70.6665 26.2785 69.7778 26.0962 68.8892 26.0962H68.8208C66.7244 26.2101 65.6763 26.5291 65.6763 27.0532C65.2205 31.4396 64.9927 34.7892 64.9927 37.1021Z" fill="#E488CA"></path><path d="M89.6191 22.2852C90.918 22.2852 91.8066 22.9232 92.2852 24.1992L92.4219 25.5664C92.4219 29.0527 88.8444 31.9466 81.6895 34.248C82.5781 37.1191 84.6745 38.5547 87.9785 38.5547C90.542 38.5547 92.8662 37.4382 94.9512 35.2051L95.0195 35.2734V35.3418C92.4674 38.9421 89.528 40.7422 86.2012 40.7422C84.0137 40.7422 82.1452 39.7168 80.5957 37.666C79.821 36.5039 79.4336 35.1139 79.4336 33.4961C79.4336 30.2946 80.8008 27.3779 83.5352 24.7461C85.9049 23.1055 87.9329 22.2852 89.6191 22.2852ZM81.4844 32.7441C87.5456 30.8187 90.5762 28.7223 90.5762 26.4551C90.5762 25.2132 89.9837 24.5068 88.7988 24.3359H88.5938C86.9189 24.3359 85.0049 25.5208 82.8516 27.8906C81.9401 29.5996 81.4844 31.2174 81.4844 32.7441Z" fill="#E2E0B9"></path><path d="M102.949 23.9258V23.9941L103.018 23.9258C104.453 23.9258 105.479 24.7917 106.094 26.5234L106.162 27.207C106.162 27.9134 105.911 28.5286 105.41 29.0527H105.342V28.9844C105.342 27.7311 104.635 26.8652 103.223 26.3867L102.607 26.3184H102.197C100.146 26.3184 98.4831 27.6855 97.207 30.4199C96.888 31.3314 96.7285 32.1973 96.7285 33.0176C96.7285 35.0228 97.526 36.5495 99.1211 37.5977C99.9186 38.0534 100.853 38.2812 101.924 38.2812C104.67 38.2812 106.584 37.4382 107.666 35.752H107.734L107.871 35.8887C107.871 37.2786 106.891 38.6003 104.932 39.8535C103.576 40.446 102.368 40.7422 101.309 40.7422C98.8249 40.7422 96.9792 39.3294 95.7715 36.5039C95.4069 35.5127 95.2246 34.4645 95.2246 33.3594C95.2246 29.8275 96.7285 27.002 99.7363 24.8828C101.104 24.2448 102.174 23.9258 102.949 23.9258ZM117.749 23.9258V23.9941L117.817 23.9258C119.253 23.9258 120.278 24.7917 120.894 26.5234L120.962 27.207C120.962 27.9134 120.711 28.5286 120.21 29.0527H120.142V28.9844C120.142 27.7311 119.435 26.8652 118.022 26.3867L117.407 26.3184H116.997C114.946 26.3184 113.283 27.6855 112.007 30.4199C111.688 31.3314 111.528 32.1973 111.528 33.0176C111.528 35.0228 112.326 36.5495 113.921 37.5977C114.718 38.0534 115.653 38.2812 116.724 38.2812C119.469 38.2812 121.383 37.4382 122.466 35.752H122.534L122.671 35.8887C122.671 37.2786 121.691 38.6003 119.731 39.8535C118.376 40.446 117.168 40.7422 116.108 40.7422C113.625 40.7422 111.779 39.3294 110.571 36.5039C110.207 35.5127 110.024 34.4645 110.024 33.3594C110.024 29.8275 111.528 27.002 114.536 24.8828C115.903 24.2448 116.974 23.9258 117.749 23.9258Z" fill="#820000"></path><path d="M131.011 30.5225H132.651L136.001 30.5908C136.274 30.682 136.411 30.8643 136.411 31.1377V31.2061C136.411 31.8555 136.047 32.4023 135.317 32.8467L131.011 32.7783L125.679 32.8467C125.451 32.7897 125.337 32.6074 125.337 32.2998C125.337 31.6048 125.77 31.0352 126.636 30.5908L131.011 30.5225Z" fill="#B75D55"></path><path d="M139.282 21.7896H139.351C139.578 21.9263 139.692 22.0858 139.692 22.2681L139.077 30.8813V30.9497H139.146C140.148 29.4002 141.561 28.1014 143.384 27.0532C145.708 25.8683 147.873 25.2759 149.878 25.2759H150.22C150.539 25.2759 150.698 25.4354 150.698 25.7544V25.8911C150.527 26.9849 149.98 27.5317 149.058 27.5317C146.802 27.5317 144.364 28.3976 141.743 30.1294C140.239 31.3599 139.487 32.7043 139.487 34.1626C139.487 36.0197 140.33 37.3641 142.017 38.1958C142.541 38.3325 143.088 38.4009 143.657 38.4009H144.204C146.335 38.4009 148.477 37.3527 150.63 35.2563H150.698V35.3931C149.707 37.6034 147.702 39.2896 144.683 40.4517C143.965 40.634 143.327 40.7251 142.769 40.7251C141.356 40.7251 140.125 40.1554 139.077 39.0161L139.146 39.4946L139.282 42.4341C139.282 42.867 138.895 43.3228 138.12 43.8013H137.778C137.414 43.8013 137.231 41.4087 137.231 36.6235V35.5981C137.231 31.4396 137.482 27.1558 137.983 22.7466C138.382 22.1086 138.815 21.7896 139.282 21.7896Z" fill="#407197"></path><path d="M159.482 22.4902H159.893C162.786 22.4902 164.86 24.3587 166.113 28.0957C166.387 29.1325 166.523 30.1351 166.523 31.1035V31.1719C166.523 33.6556 165.612 36.071 163.789 38.418C162.331 39.9674 160.736 40.7422 159.004 40.7422C156.292 40.7422 154.264 39.1699 152.92 36.0254C152.419 34.6924 152.168 33.3936 152.168 32.1289C152.168 29.349 153.239 26.7285 155.381 24.2676C156.725 23.0827 158.092 22.4902 159.482 22.4902ZM154.082 31.1035V31.3086C154.082 34.1455 155.153 36.3102 157.295 37.8027C158.035 38.1217 158.696 38.2812 159.277 38.2812C161.67 38.2812 163.447 36.5951 164.609 33.2227L164.746 31.9238V31.582C164.746 29.2578 163.812 27.2754 161.943 25.6348C161.123 25.179 160.394 24.9512 159.756 24.9512H159.209C157.432 24.9512 155.951 26.0677 154.766 28.3008C154.31 29.2578 154.082 30.1921 154.082 31.1035Z" fill="#85BC98"></path><path d="M182.793 22.3364H183.34C184.593 22.3364 185.299 22.7466 185.459 23.5669C185.174 24.7062 184.673 25.2759 183.955 25.2759C183.408 24.9569 182.907 24.7974 182.451 24.7974H181.973C180.514 24.7974 178.896 25.8228 177.119 27.8735C175.433 30.3231 174.59 32.6245 174.59 34.7778V34.9146C174.59 36.3843 175.137 37.3641 176.23 37.854C176.606 38.0363 177.039 38.1274 177.529 38.1274C179.546 38.1274 180.936 36.259 181.699 32.522L181.768 31.2231V30.2661L181.699 29.3091C182.155 28.1698 182.633 27.6001 183.135 27.6001H183.271C183.67 28.0672 184.399 29.6851 185.459 32.4536C187.054 36.578 187.852 40.2238 187.852 43.3911V43.6646C187.852 49.008 185.618 52.9956 181.152 55.6274C179.58 56.2655 178.167 56.5845 176.914 56.5845C174.146 56.5845 171.821 55.3312 169.941 52.8247C169.121 51.3208 168.711 49.7941 168.711 48.2446C168.711 45.4533 170.01 43.5164 172.607 42.4341H172.676V42.5024C171.229 43.7215 170.5 44.4735 170.488 44.7583C170.169 45.3963 170.01 46.1483 170.01 47.0142V47.2192C170.01 50.5688 171.696 52.7791 175.068 53.8501C175.832 54.1235 176.606 54.2603 177.393 54.2603H178.008C180.731 54.2603 183.009 52.7336 184.844 49.6802C185.527 48.3244 185.869 46.661 185.869 44.6899V44.4165C185.869 41.2492 185.049 37.5806 183.408 33.4106H183.34C182.747 35.8944 181.699 37.8084 180.195 39.1528C178.805 40.1554 177.507 40.6567 176.299 40.6567C174.111 40.6567 173.018 39.0845 173.018 35.9399C173.018 32.5106 174.453 29.0926 177.324 25.686C179.5 23.453 181.323 22.3364 182.793 22.3364Z" fill="#9B43CE"></path></svg> 