<?xml version="1.0" encoding="UTF-8"?> <svg xmlns="http://www.w3.org/2000/svg" width="247" height="75" viewBox="0 0 247 75" fill="none"><path d="M36.5723 -0.742188C37.1419 -0.263672 37.8255 1.44531 38.623 4.38477C39.3066 7.62044 39.6484 10.1725 39.6484 12.041C43.4993 13.3512 47.0312 15.1286 50.2441 17.373C51.5544 18.1478 53.3773 19.7884 55.7129 22.2949C57.4674 24.4027 58.5156 26.499 58.8574 28.584V31.8652C58.8574 33.1299 58.0599 34.9072 56.4648 37.1973C54.79 38.9746 52.762 39.8633 50.3809 39.8633H50.2441C46.7806 39.8633 42.5423 37.8581 37.5293 33.8477C36.5153 37.9492 34.8519 40 32.5391 40H32.1973C30.6136 40 29.3831 39.1797 28.5059 37.5391C28.2324 36.958 28.0957 36.3883 28.0957 35.8301V35.2148C28.0957 33.221 29.0755 31.5576 31.0352 30.2246C31.8669 29.7689 32.6872 29.541 33.4961 29.541C34.3848 29.541 35.5013 29.7917 36.8457 30.293V30.2246C37.5293 25.9294 37.8711 21.7367 37.8711 17.6465L37.8027 14.3652C35.2962 13.4766 31.6048 12.6562 26.7285 11.9043C22.4788 11.2663 18.8102 10.9473 15.7227 10.9473H13.8086C7.5651 10.9473 3.69141 11.8132 2.1875 13.5449C1.95964 14.0804 1.8457 14.445 1.8457 14.6387C1.8457 17.2135 3.62305 19.0137 7.17773 20.0391L7.65625 20.3809V20.5859C7.65625 20.7682 7.38281 20.8594 6.83594 20.8594C5.06999 20.8594 3.15592 19.9479 1.09375 18.125C0.364583 17.1566 0 16.2679 0 15.459V14.707C0 12.1663 2.11914 10.3206 6.35742 9.16992C8.69303 8.62305 11.7008 8.34961 15.3809 8.34961C23.584 8.34961 30.9896 9.35221 37.5977 11.3574C37.3698 8.48633 36.9596 6.0026 36.3672 3.90625L35.2734 1.17188C35.5355 -0.104167 35.9684 -0.742188 36.5723 -0.742188ZM39.7168 15.0488C39.7168 20.5745 39.2383 25.9066 38.2812 31.0449L44.502 35.2148C47.1452 36.6732 49.4466 37.4023 51.4062 37.4023C54.0267 37.4023 55.8268 35.944 56.8066 33.0273C56.9434 32.4805 57.0117 31.9792 57.0117 31.5234V31.1133C57.0117 27.7637 54.8698 24.3685 50.5859 20.9277C48.4554 19.3441 46.359 18.0452 44.2969 17.0312C42.9753 16.3932 41.4486 15.7324 39.7168 15.0488ZM30.0098 34.1895C30.0098 35.4313 30.6022 36.4111 31.7871 37.1289C32.3568 37.3568 32.8125 37.4707 33.1543 37.4707H33.4277C34.4417 37.4707 35.376 35.9896 36.2305 33.0273C35.2393 32.4805 34.2139 32.207 33.1543 32.207H32.9492C31.32 32.207 30.363 32.7311 30.0781 33.7793L30.0098 34.1895Z" fill="#EFA8C8"></path><path d="M69.2822 21.748H69.6924C72.5863 21.748 74.6598 23.6165 75.9131 27.3535C76.1865 28.3903 76.3232 29.3929 76.3232 30.3613V30.4297C76.3232 32.9134 75.4118 35.3288 73.5889 37.6758C72.1305 39.2253 70.5355 40 68.8037 40C66.0921 40 64.0641 38.4277 62.7197 35.2832C62.2184 33.9502 61.9678 32.6514 61.9678 31.3867C61.9678 28.6068 63.0387 25.9863 65.1807 23.5254C66.5251 22.3405 67.8923 21.748 69.2822 21.748ZM63.8818 30.3613V30.5664C63.8818 33.4033 64.9528 35.568 67.0947 37.0605C67.8353 37.3796 68.4961 37.5391 69.0771 37.5391C71.4697 37.5391 73.2471 35.8529 74.4092 32.4805L74.5459 31.1816V30.8398C74.5459 28.5156 73.6117 26.5332 71.7432 24.8926C70.9229 24.4368 70.1937 24.209 69.5557 24.209H69.0088C67.2314 24.209 65.7503 25.3255 64.5654 27.5586C64.1097 28.5156 63.8818 29.4499 63.8818 30.3613Z" fill="#141A89"></path><path d="M85.979 22.6196C89.6362 22.6196 92.0744 24.6021 93.2935 28.5669C93.658 29.8885 93.8403 31.0506 93.8403 32.0532C93.8403 34.8332 92.5871 37.1118 90.0806 38.8892C88.5197 39.6183 87.0386 39.9829 85.6372 39.9829C84.4181 39.9829 83.0737 39.7323 81.604 39.231V39.2993C81.1027 47.172 80.6014 53.0054 80.1001 56.7993C79.6899 58.5881 79.2342 59.9325 78.7329 60.8325C77.6733 62.5187 76.4657 63.3618 75.1099 63.3618H74.563L74.3579 63.1567V62.9517C74.3579 62.8719 74.7453 62.6213 75.52 62.1997C76.5796 61.1515 77.286 59.8071 77.6392 58.1665C78.3228 55.4093 79.2114 44.7453 80.3052 26.1743C80.3052 25.3312 80.5786 24.7616 81.1255 24.4653C82.3332 23.2349 83.951 22.6196 85.979 22.6196ZM81.5356 36.3599L81.4673 36.4282C82.4585 36.9751 83.6662 37.2485 85.0903 37.2485H85.5005C88.5539 37.2485 90.6274 35.9497 91.7212 33.3521L91.9263 31.8481C91.9263 29.3986 90.6502 27.4162 88.0981 25.9009C87.2095 25.5363 86.3208 25.354 85.4321 25.354H85.3638C83.2674 25.4679 82.2192 25.7869 82.2192 26.311C81.7635 30.6974 81.5356 34.047 81.5356 36.3599ZM190.176 23.5254H190.449C192.637 23.5254 194.141 24.8014 194.961 27.3535L195.098 28.1738H195.166C196.112 26.1686 196.886 25.166 197.49 25.166C197.581 25.166 197.627 25.2344 197.627 25.3711C196.408 27.194 195.679 29.222 195.439 31.4551C195.166 32.64 195.029 33.6654 195.029 34.5312C195.029 35.9212 195.599 36.8555 196.738 37.334C198.037 37.5505 198.766 37.7327 198.926 37.8809L199.131 38.4961C199.131 39.043 198.698 39.362 197.832 39.4531C196.043 39.4531 194.813 38.5417 194.141 36.7188C193.993 35.944 193.879 35.5566 193.799 35.5566C192.329 38.5189 190.21 40 187.441 40C185.094 40 183.363 38.8379 182.246 36.5137C181.882 35.6706 181.699 34.7819 181.699 33.8477V33.4375C181.699 30.2132 183.112 27.4333 185.938 25.0977C187.384 24.0495 188.797 23.5254 190.176 23.5254ZM183.545 32.4121V32.8223C183.545 35.2718 184.707 36.7985 187.031 37.4023L188.193 37.5391C190.666 37.5391 192.397 35.9212 193.389 32.6855L193.594 30.6348C193.594 27.9915 192.637 26.3509 190.723 25.7129C190.244 25.5762 189.766 25.5078 189.287 25.5078H188.877C186.644 25.5078 184.935 27.2396 183.75 30.7031C183.613 31.3298 183.545 31.8994 183.545 32.4121Z" fill="#AF4343"></path><path d="M103.291 21.748H103.701C106.595 21.748 108.669 23.6165 109.922 27.3535C110.195 28.3903 110.332 29.3929 110.332 30.3613V30.4297C110.332 32.9134 109.421 35.3288 107.598 37.6758C106.139 39.2253 104.544 40 102.812 40C100.101 40 98.0729 38.4277 96.7285 35.2832C96.2272 33.9502 95.9766 32.6514 95.9766 31.3867C95.9766 28.6068 97.0475 25.9863 99.1895 23.5254C100.534 22.3405 101.901 21.748 103.291 21.748ZM97.8906 30.3613V30.5664C97.8906 33.4033 98.9616 35.568 101.104 37.0605C101.844 37.3796 102.505 37.5391 103.086 37.5391C105.479 37.5391 107.256 35.8529 108.418 32.4805L108.555 31.1816V30.8398C108.555 28.5156 107.62 26.5332 105.752 24.8926C104.932 24.4368 104.202 24.209 103.564 24.209H103.018C101.24 24.209 99.7591 25.3255 98.5742 27.5586C98.1185 28.5156 97.8906 29.4499 97.8906 30.3613Z" fill="#85BC98"></path><path d="M116.843 21.5942H117.185C118.586 21.5942 119.509 22.4202 119.954 24.0723V24.5337C119.954 26.1515 119.014 27.9403 117.134 29.8999C115.174 32.1102 114.194 33.8021 114.194 34.9756V35.3857C114.194 36.582 114.906 37.4251 116.331 37.915L117.134 37.9834H117.544C119.048 37.9834 120.717 37.3112 122.551 35.9668C122.722 35.7048 122.956 35.5509 123.252 35.5054C123.457 35.5054 123.571 35.6934 123.594 36.0693V36.3086C123.594 37.71 121.788 38.8835 118.176 39.8291L116.45 40C114.502 40 113.249 39.231 112.69 37.6929C112.576 37.2827 112.52 36.9352 112.52 36.6504V36.3086C112.52 34.2236 113.767 31.8368 116.262 29.1479C117.493 27.5415 118.108 26.3509 118.108 25.5762V25.354C117.926 24.3856 117.373 23.9014 116.45 23.9014H115.989C115.282 23.9014 114.377 24.266 113.271 24.9951H112.93C112.816 24.9951 112.719 24.8242 112.639 24.4824V24.3628C112.639 23.4855 113.408 22.7393 114.946 22.124C115.675 21.7708 116.308 21.5942 116.843 21.5942Z" fill="#008D2F"></path><path d="M138.394 21.8164C139.066 21.8164 139.453 22.4544 139.556 23.7305V24.4141C139.556 26.6471 138.097 30.0195 135.181 34.5312C135.933 36.2061 137.026 37.3226 138.462 37.8809C138.861 38.0632 139.59 38.2227 140.649 38.3594C140.786 38.5303 140.854 38.6898 140.854 38.8379V38.9062C140.854 39.6468 140.444 40.1937 139.624 40.5469H139.487C137.482 40.5469 135.75 39.5671 134.292 37.6074C133.927 37.0719 133.745 36.7301 133.745 36.582C131.706 38.8607 129.951 40 128.481 40H128.276C126.351 40 124.984 38.61 124.175 35.8301C124.038 35.1351 123.97 34.4287 123.97 33.7109V33.6426C123.97 30.8512 124.767 27.3649 126.362 23.1836L126.704 22.9102H126.841L126.978 23.0469V23.252C126.066 26.2142 125.61 28.7891 125.61 30.9766C125.61 34.2464 126.317 36.3883 127.729 37.4023L128.413 37.5391H128.687C129.917 37.5391 131.375 36.582 133.062 34.668C132.834 33.8818 132.72 32.9932 132.72 32.002V31.6602C132.72 27.1257 134.315 23.9128 137.505 22.0215L138.394 21.8164ZM134.429 30.7031L134.634 32.6172H134.702C136.536 29.5752 137.562 27.0687 137.778 25.0977V24.8242C137.744 24.3685 137.607 24.1406 137.368 24.1406C136.742 24.1406 136.035 24.9837 135.249 26.6699C134.702 27.9915 134.429 29.3359 134.429 30.7031Z" fill="#7A61B7"></path><path d="M150.972 21.543C152.271 21.543 153.159 22.181 153.638 23.457L153.774 24.8242C153.774 28.3105 150.197 31.2044 143.042 33.5059C143.931 36.377 146.027 37.8125 149.331 37.8125C151.895 37.8125 154.219 36.696 156.304 34.4629L156.372 34.5312V34.5996C153.82 38.1999 150.881 40 147.554 40C145.366 40 143.498 38.9746 141.948 36.9238C141.174 35.7617 140.786 34.3717 140.786 32.7539C140.786 29.5524 142.153 26.6357 144.888 24.0039C147.257 22.3633 149.285 21.543 150.972 21.543ZM142.837 32.002C148.898 30.0765 151.929 27.9801 151.929 25.7129C151.929 24.471 151.336 23.7646 150.151 23.5938H149.946C148.271 23.5938 146.357 24.7786 144.204 27.1484C143.293 28.8574 142.837 30.4753 142.837 32.002Z" fill="#FF8C00"></path><path d="M168.198 22.2949C168.426 22.3747 168.54 22.4886 168.54 22.6367L167.856 34.8047H168.608C171.126 34.8047 173.701 33.3464 176.333 30.4297C177.074 29.5296 177.62 28.0941 177.974 26.123C178.748 23.6621 179.432 22.4316 180.024 22.4316H180.435C180.662 22.5456 180.776 22.7279 180.776 22.9785C179.546 25.9749 178.931 28.5498 178.931 30.7031C178.931 33.2666 179.751 35.7503 181.392 38.1543L181.46 38.4277C181.152 39.5215 180.719 40.0684 180.161 40.0684C179.751 40.0684 179.045 38.9062 178.042 36.582C177.45 35.0212 177.153 33.4033 177.153 31.7285H177.085C175.262 34.1781 172.869 35.887 169.907 36.8555C169.03 37.0378 168.278 37.1289 167.651 37.1289V37.1973C167.651 39.4759 167.401 40.7975 166.899 41.1621C166.512 41.5267 166.193 41.709 165.942 41.709C165.76 41.6178 165.669 41.5039 165.669 41.3672L166.831 23.5254C167.389 22.7051 167.845 22.2949 168.198 22.2949Z" fill="#2A6DB1"></path><path d="M225.962 23.1152C226.144 23.3089 226.235 23.4912 226.235 23.6621V25.918C226.235 32.0589 227.17 36.5023 229.038 39.248L229.106 39.5215C228.833 40.6152 228.377 41.1621 227.739 41.1621H227.671C226.919 40.3874 226.235 38.9518 225.62 36.8555L225.142 34.9414H225.073C224.435 36.8555 223.364 38.2454 221.86 39.1113C220.767 39.6126 219.764 39.8633 218.853 39.8633C216.357 39.8633 214.785 37.6758 214.136 33.3008H214.067C213.099 36.2858 211.549 38.4277 209.419 39.7266C208.416 40.1823 207.528 40.4102 206.753 40.4102H206.616C203.973 40.4102 202.15 38.7695 201.147 35.4883C200.965 34.5085 200.874 33.7109 200.874 33.0957V32.2754C200.874 29.2448 201.785 26.5788 203.608 24.2773L203.882 24.1406L203.95 24.209V24.2773L202.856 26.3281C202.492 27.5586 202.31 28.7435 202.31 29.8828V30.498C202.446 34.7135 203.654 37.1973 205.933 37.9492L207.368 38.0859C210.854 38.0859 212.928 34.5312 213.589 27.4219C213.589 25.4736 213.953 24.3799 214.683 24.1406C214.717 24.0039 214.899 23.9355 215.229 23.9355L215.503 24.3457C215.503 31.4095 216.118 35.4427 217.349 36.4453C217.873 37.2201 218.556 37.6074 219.399 37.6074H219.81C222.282 37.6074 223.786 35.5794 224.321 31.5234L224.458 28.7891V27.9004L224.39 25.5762C224.39 24.3457 224.777 23.5482 225.552 23.1836L225.962 23.1152Z" fill="#AA66AA"></path><path d="M243.872 21.8164C244.544 21.8164 244.932 22.4544 245.034 23.7305V24.4141C245.034 26.6471 243.576 30.0195 240.659 34.5312C241.411 36.2061 242.505 37.3226 243.94 37.8809C244.339 38.0632 245.068 38.2227 246.128 38.3594C246.265 38.5303 246.333 38.6898 246.333 38.8379V38.9062C246.333 39.6468 245.923 40.1937 245.103 40.5469H244.966C242.961 40.5469 241.229 39.5671 239.771 37.6074C239.406 37.0719 239.224 36.7301 239.224 36.582C237.184 38.8607 235.43 40 233.96 40H233.755C231.829 40 230.462 38.61 229.653 35.8301C229.517 35.1351 229.448 34.4287 229.448 33.7109V33.6426C229.448 30.8512 230.246 27.3649 231.841 23.1836L232.183 22.9102H232.319L232.456 23.0469V23.252C231.545 26.2142 231.089 28.7891 231.089 30.9766C231.089 34.2464 231.795 36.3883 233.208 37.4023L233.892 37.5391H234.165C235.396 37.5391 236.854 36.582 238.54 34.668C238.312 33.8818 238.198 32.9932 238.198 32.002V31.6602C238.198 27.1257 239.793 23.9128 242.983 22.0215L243.872 21.8164ZM239.907 30.7031L240.112 32.6172H240.181C242.015 29.5752 243.04 27.0687 243.257 25.0977V24.8242C243.223 24.3685 243.086 24.1406 242.847 24.1406C242.22 24.1406 241.514 24.9837 240.728 26.6699C240.181 27.9915 239.907 29.3359 239.907 30.7031Z" fill="#4C8E62"></path><path d="M97.0146 55.5942H97.3564C98.7578 55.5942 99.6807 56.4202 100.125 58.0723V58.5337C100.125 60.1515 99.1851 61.9403 97.3052 63.8999C95.3455 66.1102 94.3657 67.8021 94.3657 68.9756V69.3857C94.3657 70.582 95.0778 71.4251 96.502 71.915L97.3052 71.9834H97.7153C99.2192 71.9834 100.888 71.3112 102.723 69.9668C102.894 69.7048 103.127 69.5509 103.423 69.5054C103.628 69.5054 103.742 69.6934 103.765 70.0693V70.3086C103.765 71.71 101.959 72.8835 98.3477 73.8291L96.6216 74C94.6733 74 93.4201 73.231 92.8618 71.6929C92.7479 71.2827 92.6909 70.9352 92.6909 70.6504V70.3086C92.6909 68.2236 93.9385 65.8368 96.4336 63.1479C97.6641 61.5415 98.2793 60.3509 98.2793 59.5762V59.354C98.097 58.3856 97.5444 57.9014 96.6216 57.9014H96.1602C95.4538 57.9014 94.548 58.266 93.4429 58.9951H93.1011C92.9871 58.9951 92.8903 58.8242 92.8105 58.4824V58.3628C92.8105 57.4855 93.5796 56.7393 95.1177 56.124C95.8468 55.7708 96.4792 55.5942 97.0146 55.5942Z" fill="#141A89"></path><path d="M111.456 55.748H111.866C114.76 55.748 116.833 57.6165 118.086 61.3535C118.36 62.3903 118.497 63.3929 118.497 64.3613V64.4297C118.497 66.9134 117.585 69.3288 115.762 71.6758C114.304 73.2253 112.709 74 110.977 74C108.265 74 106.237 72.4277 104.893 69.2832C104.392 67.9502 104.141 66.6514 104.141 65.3867C104.141 62.6068 105.212 59.9863 107.354 57.5254C108.698 56.3405 110.066 55.748 111.456 55.748ZM106.055 64.3613V64.5664C106.055 67.4033 107.126 69.568 109.268 71.0605C110.009 71.3796 110.669 71.5391 111.25 71.5391C113.643 71.5391 115.42 69.8529 116.583 66.4805L116.719 65.1816V64.8398C116.719 62.5156 115.785 60.5332 113.917 58.8926C113.096 58.4368 112.367 58.209 111.729 58.209H111.182C109.405 58.209 107.924 59.3255 106.739 61.5586C106.283 62.5156 106.055 63.4499 106.055 64.3613Z" fill="#B90003"></path><path d="M128.409 57.1836V57.252L128.477 57.1836C129.913 57.1836 130.938 58.0495 131.553 59.7812L131.622 60.4648C131.622 61.1712 131.371 61.7865 130.87 62.3105H130.801V62.2422C130.801 60.9889 130.095 60.123 128.682 59.6445L128.067 59.5762H127.657C125.606 59.5762 123.943 60.9434 122.667 63.6777C122.347 64.5892 122.188 65.4551 122.188 66.2754C122.188 68.2806 122.986 69.8073 124.581 70.8555C125.378 71.3112 126.312 71.5391 127.383 71.5391C130.129 71.5391 132.043 70.696 133.125 69.0098H133.194L133.331 69.1465C133.331 70.5365 132.351 71.8581 130.391 73.1113C129.035 73.7038 127.828 74 126.768 74C124.284 74 122.439 72.5872 121.231 69.7617C120.866 68.7705 120.684 67.7223 120.684 66.6172C120.684 63.0853 122.188 60.2598 125.196 58.1406C126.563 57.5026 127.634 57.1836 128.409 57.1836Z" fill="#E2E0B9"></path><path d="M136.714 53.2188C137.261 53.2188 137.945 54.2897 138.765 56.4316C139.039 57.3887 139.175 58.3685 139.175 59.3711V60.6016H139.244C139.415 60.0889 140.03 59.3369 141.089 58.3457C142.217 57.4342 143.288 56.9785 144.302 56.9785C145.567 56.9785 146.683 57.7988 147.652 59.4395L147.789 60.123H147.857C148.654 58.3001 149.748 57.3887 151.138 57.3887C152.938 57.3887 154.146 58.1178 154.761 59.5762C155.126 60.4307 155.308 61.5928 155.308 63.0625V66.207C155.308 69.4085 156.014 71.1859 157.427 71.5391C158.384 71.6302 158.863 71.8581 158.863 72.2227V72.4277C158.624 73.4759 158.191 74 157.564 74C156.242 74 155.171 73.2936 154.351 71.8809C153.85 70.6846 153.599 69.3857 153.599 67.9844L153.941 63.541C153.941 61.2624 153.166 60.123 151.617 60.123H151.412C150.067 60.123 149.247 60.8294 148.951 62.2422C148.256 69.625 147.8 73.3164 147.583 73.3164C147.208 73.7721 146.82 74 146.421 74C146.194 73.8861 146.08 73.7038 146.08 73.4531C146.49 70.0579 146.695 67.5742 146.695 66.002C146.695 62.7777 146.148 60.7041 145.054 59.7812C144.655 59.599 144.245 59.5078 143.824 59.5078H143.482C140.656 59.5078 138.788 62.6523 137.876 68.9414C137.432 71.9492 137.113 73.4531 136.919 73.4531C136.532 73.8177 136.213 74 135.962 74C135.735 74 135.575 73.8177 135.484 73.4531L137.33 61.6953L137.398 60.4648C137.398 58.4368 136.76 56.6367 135.484 55.0645V54.791C135.484 54.1074 135.894 53.5833 136.714 53.2188Z" fill="#EFA8C8"></path><path d="M173.458 55.8164C174.13 55.8164 174.517 56.4544 174.62 57.7305V58.4141C174.62 60.6471 173.161 64.0195 170.245 68.5312C170.997 70.2061 172.09 71.3226 173.526 71.8809C173.925 72.0632 174.654 72.2227 175.713 72.3594C175.85 72.5303 175.918 72.6898 175.918 72.8379V72.9062C175.918 73.6468 175.508 74.1937 174.688 74.5469H174.551C172.546 74.5469 170.814 73.5671 169.356 71.6074C168.991 71.0719 168.809 70.7301 168.809 70.582C166.77 72.8607 165.015 74 163.545 74H163.34C161.415 74 160.048 72.61 159.239 69.8301C159.102 69.1351 159.034 68.4287 159.034 67.7109V67.6426C159.034 64.8512 159.831 61.3649 161.426 57.1836L161.768 56.9102H161.905L162.042 57.0469V57.252C161.13 60.2142 160.674 62.7891 160.674 64.9766C160.674 68.2464 161.381 70.3883 162.793 71.4023L163.477 71.5391H163.75C164.981 71.5391 166.439 70.582 168.125 68.668C167.898 67.8818 167.784 66.9932 167.784 66.002V65.6602C167.784 61.1257 169.379 57.9128 172.569 56.0215L173.458 55.8164ZM169.493 64.7031L169.698 66.6172H169.766C171.6 63.5752 172.626 61.0687 172.842 59.0977V58.8242C172.808 58.3685 172.671 58.1406 172.432 58.1406C171.806 58.1406 171.099 58.9837 170.313 60.6699C169.766 61.9915 169.493 63.3359 169.493 64.7031Z" fill="#FFB5A2"></path></svg> 