<?xml version="1.0" encoding="UTF-8"?> <svg xmlns="http://www.w3.org/2000/svg" width="260" height="57" viewBox="0 0 260 57" fill="none"><path d="M15.791 -0.530273H15.8594C16.224 -0.530273 16.4062 0.290039 16.4062 1.93066C18.6165 1.65723 20.6445 1.52051 22.4902 1.52051C27.0589 1.52051 31.0921 2.31803 34.5898 3.91309C36.4242 4.94987 37.5635 6.27148 38.0078 7.87793V8.15137C38.0078 8.90332 37.5293 9.51855 36.5723 9.99707H36.5039C36.2419 9.99707 35.9684 9.51855 35.6836 8.56152C34.8747 7.14876 33.1885 6.05501 30.625 5.28027C29.292 4.91569 27.4691 4.59668 25.1562 4.32324C24.3359 18.4053 23.9258 27.0413 23.9258 30.2314V32.9658L23.9941 35.7686C23.527 36.9079 23.0029 37.4775 22.4219 37.4775H22.1484C21.875 37.4775 21.7383 36.361 21.7383 34.1279L21.6699 32.3506C21.6699 29.263 22.1257 19.875 23.0371 4.18652L21.875 4.11816H21.6016C20.0065 4.11816 18.3203 4.20931 16.543 4.3916C16.6341 5.87272 16.6797 7.80957 16.6797 10.2021C16.6797 20.3649 15.7682 26.973 13.9453 30.0264C12.43 31.9404 10.6982 32.8975 8.75 32.8975C6.2321 32.8975 3.54329 31.348 0.683594 28.249L0.615234 27.8389C0.900065 26.654 1.40137 26.0615 2.11914 26.0615C2.21029 26.0615 2.80273 26.5628 3.89648 27.5654C6.24349 29.4795 8.29427 30.4365 10.0488 30.4365C11.8376 30.4365 13.0225 29.0921 13.6035 26.4033C14.196 21.6068 14.4922 16.9128 14.4922 12.3213H14.5605L14.4922 12.2529L14.5605 10.9541L14.4922 5.0752L14.4238 4.7334C10.1514 5.59928 6.7334 7.17155 4.16992 9.4502C2.84831 10.7035 2.1875 11.8656 2.1875 12.9365C2.1875 14.3037 3.3724 15.3519 5.74219 16.0811L9.02344 16.4229L9.0918 16.4912V16.5596C9.0918 16.7646 8.56771 16.8786 7.51953 16.9014H7.45117C4.0332 16.9014 1.82292 16.1266 0.820312 14.5771C0.273438 13.9277 0 13.1758 0 12.3213C0 9.46159 3.80534 6.43099 11.416 3.22949L14.2871 2.34082L14.2188 1.04199C14.2188 0.620443 14.6061 0.119141 15.3809 -0.461914L15.791 -0.530273Z" fill="#B75D55"></path><path d="M45.4761 15.6196C49.1333 15.6196 51.5715 17.6021 52.7905 21.5669C53.1551 22.8885 53.3374 24.0506 53.3374 25.0532C53.3374 27.8332 52.0841 30.1118 49.5776 31.8892C48.0168 32.6183 46.5356 32.9829 45.1343 32.9829C43.9152 32.9829 42.5708 32.7323 41.1011 32.231V32.2993C40.5998 40.172 40.0985 46.0054 39.5972 49.7993C39.187 51.5881 38.7313 52.9325 38.23 53.8325C37.1704 55.5187 35.9627 56.3618 34.6069 56.3618H34.0601L33.855 56.1567V55.9517C33.855 55.8719 34.2424 55.6213 35.0171 55.1997C36.0767 54.1515 36.783 52.8071 37.1362 51.1665C37.8198 48.4093 38.7085 37.7453 39.8022 19.1743C39.8022 18.3312 40.0757 17.7616 40.6226 17.4653C41.8302 16.2349 43.4481 15.6196 45.4761 15.6196ZM41.0327 29.3599L40.9644 29.4282C41.9556 29.9751 43.1632 30.2485 44.5874 30.2485H44.9976C48.0509 30.2485 50.1245 28.9497 51.2183 26.3521L51.4233 24.8481C51.4233 22.3986 50.1473 20.4162 47.5952 18.9009C46.7065 18.5363 45.8179 18.354 44.9292 18.354H44.8608C42.7645 18.4679 41.7163 18.7869 41.7163 19.311C41.2606 23.6974 41.0327 27.047 41.0327 29.3599ZM221.758 15.2949C221.986 15.3747 222.1 15.4886 222.1 15.6367L221.416 27.8047H222.168C224.686 27.8047 227.261 26.3464 229.893 23.4297C230.633 22.5296 231.18 21.0941 231.533 19.123C232.308 16.6621 232.992 15.4316 233.584 15.4316H233.994C234.222 15.5456 234.336 15.7279 234.336 15.9785C233.105 18.9749 232.49 21.5498 232.49 23.7031C232.49 26.2666 233.311 28.7503 234.951 31.1543L235.02 31.4277C234.712 32.5215 234.279 33.0684 233.721 33.0684C233.311 33.0684 232.604 31.9062 231.602 29.582C231.009 28.0212 230.713 26.4033 230.713 24.7285H230.645C228.822 27.1781 226.429 28.887 223.467 29.8555C222.59 30.0378 221.838 30.1289 221.211 30.1289V30.1973C221.211 32.4759 220.96 33.7975 220.459 34.1621C220.072 34.5267 219.753 34.709 219.502 34.709C219.32 34.6178 219.229 34.5039 219.229 34.3672L220.391 16.5254C220.949 15.7051 221.405 15.2949 221.758 15.2949Z" fill="#5157AD"></path><path d="M62.7881 14.748H63.1982C66.0921 14.748 68.1657 16.6165 69.4189 20.3535C69.6924 21.3903 69.8291 22.3929 69.8291 23.3613V23.4297C69.8291 25.9134 68.9176 28.3288 67.0947 30.6758C65.6364 32.2253 64.0413 33 62.3096 33C59.598 33 57.57 31.4277 56.2256 28.2832C55.7243 26.9502 55.4736 25.6514 55.4736 24.3867C55.4736 21.6068 56.5446 18.9863 58.6865 16.5254C60.0309 15.3405 61.3981 14.748 62.7881 14.748ZM57.3877 23.3613V23.5664C57.3877 26.4033 58.4587 28.568 60.6006 30.0605C61.3411 30.3796 62.002 30.5391 62.583 30.5391C64.9756 30.5391 66.7529 28.8529 67.915 25.4805L68.0518 24.1816V23.8398C68.0518 21.5156 67.1175 19.5332 65.249 17.8926C64.4287 17.4368 63.6995 17.209 63.0615 17.209H62.5146C60.7373 17.209 59.2562 18.3255 58.0713 20.5586C57.6156 21.5156 57.3877 22.4499 57.3877 23.3613Z" fill="#9B43CE"></path><path d="M76.3403 14.5942H76.6821C78.0835 14.5942 79.0063 15.4202 79.4507 17.0723V17.5337C79.4507 19.1515 78.5107 20.9403 76.6309 22.8999C74.6712 25.1102 73.6914 26.8021 73.6914 27.9756V28.3857C73.6914 29.582 74.4035 30.4251 75.8276 30.915L76.6309 30.9834H77.041C78.5449 30.9834 80.214 30.3112 82.0483 28.9668C82.2192 28.7048 82.4528 28.5509 82.749 28.5054C82.9541 28.5054 83.068 28.6934 83.0908 29.0693V29.3086C83.0908 30.71 81.285 31.8835 77.6733 32.8291L75.9473 33C73.999 33 72.7458 32.231 72.1875 30.6929C72.0736 30.2827 72.0166 29.9352 72.0166 29.6504V29.3086C72.0166 27.2236 73.2642 24.8368 75.7593 22.1479C76.9897 20.5415 77.605 19.3509 77.605 18.5762V18.354C77.4227 17.3856 76.8701 16.9014 75.9473 16.9014H75.4858C74.7795 16.9014 73.8737 17.266 72.7686 17.9951H72.4268C72.3128 17.9951 72.216 17.8242 72.1362 17.4824V17.3628C72.1362 16.4855 72.9053 15.7393 74.4434 15.124C75.1725 14.7708 75.8049 14.5942 76.3403 14.5942ZM246.47 14.3379C248.076 14.3379 249.17 15.1126 249.751 16.6621V16.7305C249.819 16.7305 250.002 16.3659 250.298 15.6367C250.594 15.3519 250.845 15.1924 251.05 15.1582C251.369 15.1582 251.574 15.4089 251.665 15.9102L250.298 18.6445C249.569 20.4561 249.204 22.1878 249.204 23.8398C249.204 26.6198 250.07 28.7161 251.802 30.1289C252.736 30.6758 253.761 30.9492 254.878 30.9492C257.122 30.9492 258.535 30.1289 259.116 28.4883H259.253V28.5566C259.253 30.4479 258.524 31.7012 257.065 32.3164C256.325 32.7266 255.596 32.9316 254.878 32.9316H254.399C252.337 32.9316 250.605 31.6784 249.204 29.1719C248.703 27.9756 248.452 26.4033 248.452 24.4551V24.3867L248.521 23.7715V23.7031H248.452C247.461 27.8503 246.504 30.653 245.581 32.1113C243.678 35.028 241.582 36.4863 239.292 36.4863C237.218 36.4863 235.92 35.3242 235.396 33C235.304 32.8063 235.259 32.4417 235.259 31.9062V31.0859C235.327 30.2656 235.464 29.8555 235.669 29.8555H235.737C235.885 29.8555 235.977 30.3568 236.011 31.3594C236.102 32.043 236.603 32.8633 237.515 33.8203C237.982 34.0938 238.506 34.2305 239.087 34.2305C241.069 34.2305 242.983 32.8633 244.829 30.1289C245.558 29.0352 246.333 27.235 247.153 24.7285V24.5918C246.162 25.4577 245.046 25.8906 243.804 25.8906C241.958 25.8906 240.728 24.7513 240.112 22.4727L240.044 21.5156V21.0371C240.044 18.4622 241.366 16.4115 244.009 14.8848C244.886 14.5202 245.706 14.3379 246.47 14.3379ZM241.616 20.9688V21.4473C241.616 22.9626 242.528 23.8512 244.351 24.1133C246.356 24.1133 247.86 22.4727 248.862 19.1914L248.999 18.0293C248.999 16.8102 248.475 15.9671 247.427 15.5L246.606 15.3633C245.011 15.3633 243.553 16.3887 242.231 18.4395C241.821 19.3737 241.616 20.2168 241.616 20.9688Z" fill="#FFB5A2"></path><path d="M90.9351 15.6196C94.5923 15.6196 97.0304 17.6021 98.2495 21.5669C98.6141 22.8885 98.7964 24.0506 98.7964 25.0532C98.7964 27.8332 97.5431 30.1118 95.0366 31.8892C93.4757 32.6183 91.9946 32.9829 90.5933 32.9829C89.3742 32.9829 88.0298 32.7323 86.5601 32.231V32.2993C86.0588 40.172 85.5575 46.0054 85.0562 49.7993C84.646 51.5881 84.1903 52.9325 83.689 53.8325C82.6294 55.5187 81.4217 56.3618 80.0659 56.3618H79.519L79.314 56.1567V55.9517C79.314 55.8719 79.7013 55.6213 80.4761 55.1997C81.5356 54.1515 82.242 52.8071 82.5952 51.1665C83.2788 48.4093 84.1675 37.7453 85.2612 19.1743C85.2612 18.3312 85.5347 17.7616 86.0815 17.4653C87.2892 16.2349 88.9071 15.6196 90.9351 15.6196ZM86.4917 29.3599L86.4233 29.4282C87.4146 29.9751 88.6222 30.2485 90.0464 30.2485H90.4565C93.5099 30.2485 95.5835 28.9497 96.6772 26.3521L96.8823 24.8481C96.8823 22.3986 95.6063 20.4162 93.0542 18.9009C92.1655 18.5363 91.2769 18.354 90.3882 18.354H90.3198C88.2235 18.4679 87.1753 18.7869 87.1753 19.311C86.7196 23.6974 86.4917 27.047 86.4917 29.3599Z" fill="#E488CA"></path><path d="M109.409 16.5254H109.683C111.87 16.5254 113.374 17.8014 114.194 20.3535L114.331 21.1738H114.399C115.345 19.1686 116.12 18.166 116.724 18.166C116.815 18.166 116.86 18.2344 116.86 18.3711C115.641 20.194 114.912 22.222 114.673 24.4551C114.399 25.64 114.263 26.6654 114.263 27.5312C114.263 28.9212 114.832 29.8555 115.972 30.334C117.271 30.5505 118 30.7327 118.159 30.8809L118.364 31.4961C118.364 32.043 117.931 32.362 117.065 32.4531C115.277 32.4531 114.046 31.5417 113.374 29.7188C113.226 28.944 113.112 28.5566 113.032 28.5566C111.562 31.5189 109.443 33 106.675 33C104.328 33 102.596 31.8379 101.479 29.5137C101.115 28.6706 100.933 27.7819 100.933 26.8477V26.4375C100.933 23.2132 102.345 20.4333 105.171 18.0977C106.618 17.0495 108.031 16.5254 109.409 16.5254ZM102.778 25.4121V25.8223C102.778 28.2718 103.94 29.7985 106.265 30.4023L107.427 30.5391C109.899 30.5391 111.631 28.9212 112.622 25.6855L112.827 23.6348C112.827 20.9915 111.87 19.3509 109.956 18.7129C109.478 18.5762 108.999 18.5078 108.521 18.5078H108.11C105.877 18.5078 104.168 20.2396 102.983 23.7031C102.847 24.3298 102.778 24.8994 102.778 25.4121Z" fill="#C1D7E8"></path><path d="M141.641 14.4233C141.868 14.4917 141.982 14.6512 141.982 14.9019V15.3804L141.709 20.3706V22.7632C141.709 28.1408 142.78 30.8296 144.922 30.8296C145.423 30.8296 145.674 31.0802 145.674 31.5815C145.457 32.5841 144.956 33.0854 144.17 33.0854H144.102C142.119 33.0854 140.82 31.3765 140.205 27.9585L140.137 27.2749L139.18 29.8726C137.995 32.5158 136.673 33.8374 135.215 33.8374H135.01C132.948 33.8374 131.717 31.4904 131.318 26.7964L131.182 25.7026H131.113C130.065 29.2118 128.516 31.8778 126.465 33.7007C125.063 35.0679 123.742 35.7515 122.5 35.7515C121.44 35.7515 120.711 35.0679 120.312 33.7007L120.107 31.7866C120.107 30.4422 120.518 29.6219 121.338 29.3257C121.338 29.2459 121.452 29.2004 121.68 29.189L121.953 29.4624V31.0347C121.953 32.6753 122.409 33.4956 123.32 33.4956C124.71 33.4956 126.305 32.0145 128.105 29.0522C128.914 27.3888 129.575 25.5887 130.088 23.6519C130.544 21.4302 130.908 19.0148 131.182 16.4058C131.558 15.8133 131.968 15.5171 132.412 15.5171H132.549C132.777 15.6538 132.891 15.8361 132.891 16.064L132.754 18.7983V20.0288C132.754 24.7 133.118 28.0041 133.848 29.9409C134.36 31.0347 135.021 31.5815 135.83 31.5815C137.243 31.5815 138.473 28.5737 139.521 22.5581C139.84 20.439 140.091 18.1375 140.273 15.6538C140.832 14.8335 141.287 14.4233 141.641 14.4233Z" fill="#2A6DB1"></path><path d="M167.378 14.4233C167.606 14.4917 167.72 14.6512 167.72 14.9019V15.3804L167.446 20.3706V22.7632C167.446 28.1408 168.517 30.8296 170.659 30.8296C171.16 30.8296 171.411 31.0802 171.411 31.5815C171.195 32.5841 170.693 33.0854 169.907 33.0854H169.839C167.856 33.0854 166.558 31.3765 165.942 27.9585L165.874 27.2749L164.917 29.8726C163.732 32.5158 162.41 33.8374 160.952 33.8374H160.747C158.685 33.8374 157.454 31.4904 157.056 26.7964L156.919 25.7026H156.851C155.802 29.2118 154.253 31.8778 152.202 33.7007C150.801 35.0679 149.479 35.7515 148.237 35.7515C147.178 35.7515 146.449 35.0679 146.05 33.7007L145.845 31.7866C145.845 30.4422 146.255 29.6219 147.075 29.3257C147.075 29.2459 147.189 29.2004 147.417 29.189L147.69 29.4624V31.0347C147.69 32.6753 148.146 33.4956 149.058 33.4956C150.448 33.4956 152.043 32.0145 153.843 29.0522C154.652 27.3888 155.312 25.5887 155.825 23.6519C156.281 21.4302 156.646 19.0148 156.919 16.4058C157.295 15.8133 157.705 15.5171 158.149 15.5171H158.286C158.514 15.6538 158.628 15.8361 158.628 16.064L158.491 18.7983V20.0288C158.491 24.7 158.856 28.0041 159.585 29.9409C160.098 31.0347 160.758 31.5815 161.567 31.5815C162.98 31.5815 164.211 28.5737 165.259 22.5581C165.578 20.439 165.828 18.1375 166.011 15.6538C166.569 14.8335 167.025 14.4233 167.378 14.4233Z" fill="#85BC98"></path><path d="M180.059 16.5254H180.332C182.52 16.5254 184.023 17.8014 184.844 20.3535L184.98 21.1738H185.049C185.994 19.1686 186.769 18.166 187.373 18.166C187.464 18.166 187.51 18.2344 187.51 18.3711C186.291 20.194 185.562 22.222 185.322 24.4551C185.049 25.64 184.912 26.6654 184.912 27.5312C184.912 28.9212 185.482 29.8555 186.621 30.334C187.92 30.5505 188.649 30.7327 188.809 30.8809L189.014 31.4961C189.014 32.043 188.581 32.362 187.715 32.4531C185.926 32.4531 184.696 31.5417 184.023 29.7188C183.875 28.944 183.761 28.5566 183.682 28.5566C182.212 31.5189 180.093 33 177.324 33C174.977 33 173.245 31.8379 172.129 29.5137C171.764 28.6706 171.582 27.7819 171.582 26.8477V26.4375C171.582 23.2132 172.995 20.4333 175.82 18.0977C177.267 17.0495 178.68 16.5254 180.059 16.5254ZM173.428 25.4121V25.8223C173.428 28.2718 174.59 29.7985 176.914 30.4023L178.076 30.5391C180.549 30.5391 182.28 28.9212 183.271 25.6855L183.477 23.6348C183.477 20.9915 182.52 19.3509 180.605 18.7129C180.127 18.5762 179.648 18.5078 179.17 18.5078H178.76C176.527 18.5078 174.818 20.2396 173.633 23.7031C173.496 24.3298 173.428 24.8994 173.428 25.4121Z" fill="#C1C7A8"></path><path d="M213.931 14.5942H214.478C215.731 14.5942 216.437 15.0044 216.597 15.8247C216.312 16.964 215.811 17.5337 215.093 17.5337C214.546 17.2147 214.045 17.0552 213.589 17.0552H213.11C211.652 17.0552 210.034 18.0806 208.257 20.1313C206.571 22.5809 205.728 24.8823 205.728 27.0356V27.1724C205.728 28.6421 206.274 29.6219 207.368 30.1118C207.744 30.2941 208.177 30.3853 208.667 30.3853C210.684 30.3853 212.074 28.5168 212.837 24.7798L212.905 23.481V22.5239L212.837 21.5669C213.293 20.4276 213.771 19.8579 214.272 19.8579H214.409C214.808 20.325 215.537 21.9429 216.597 24.7114C218.192 28.8358 218.989 32.4816 218.989 35.6489V35.9224C218.989 41.2658 216.756 45.2534 212.29 47.8853C210.718 48.5233 209.305 48.8423 208.052 48.8423C205.283 48.8423 202.959 47.589 201.079 45.0825C200.259 43.5786 199.849 42.0519 199.849 40.5024C199.849 37.7111 201.147 35.7743 203.745 34.6919H203.813V34.7603C202.367 35.9793 201.637 36.7313 201.626 37.0161C201.307 37.6541 201.147 38.4061 201.147 39.272V39.4771C201.147 42.8267 202.834 45.0369 206.206 46.1079C206.969 46.3813 207.744 46.5181 208.53 46.5181H209.146C211.868 46.5181 214.147 44.9914 215.981 41.938C216.665 40.5822 217.007 38.9188 217.007 36.9478V36.6743C217.007 33.507 216.187 29.8384 214.546 25.6685H214.478C213.885 28.1522 212.837 30.0662 211.333 31.4106C209.943 32.4132 208.644 32.9146 207.437 32.9146C205.249 32.9146 204.155 31.3423 204.155 28.1978C204.155 24.7684 205.591 21.3504 208.462 17.9438C210.638 15.7108 212.461 14.5942 213.931 14.5942Z" fill="#CD5555"></path></svg> 