<?xml version="1.0" encoding="UTF-8"?> <svg xmlns="http://www.w3.org/2000/svg" width="270" height="51" viewBox="0 0 270 51" fill="none"><path d="M22.4297 0.988281H22.6016L22.8594 1.24609L22.7734 3.82422C22.7734 10.9141 23.7474 19.4792 25.6953 29.5195C27.3138 35.306 29.3477 38.1992 31.7969 38.1992C34.6328 38.1992 36.5234 35.4779 37.4688 30.0352C37.7552 28.4596 37.8984 26.4544 37.8984 24.0195V22.4727C37.8984 12.0026 38.2422 5.8151 38.9297 3.91016C39.1732 2.87891 39.6029 2.36328 40.2188 2.36328L40.3906 2.70703C39.9896 4.56901 39.7891 7.60547 39.7891 11.8164V16.3711C39.7891 26.5977 41.1354 33.1576 43.8281 36.0508C44.6445 36.6237 45.2747 36.9102 45.7188 36.9102H46.2344C46.9076 36.9102 47.3372 36.5091 47.5234 35.707C47.5234 34.862 46.9505 34.3177 45.8047 34.0742H45.2891C44.8594 34.0742 44.4583 34.1602 44.0859 34.332L44 34.2461V34.1602C44.3151 33.1289 45.0599 32.6133 46.2344 32.6133C47.8385 32.6133 48.9271 33.444 49.5 35.1055L49.6719 36.3945C49.6719 38.2995 48.526 39.388 46.2344 39.6602C42.9258 39.6602 40.7773 36.5664 39.7891 30.3789C39.3307 28.5169 39.1016 27.2565 39.1016 26.5977H39.0156V28.6602C39.0156 35.6784 37.526 40.1471 34.5469 42.0664C33.8451 42.3529 33.1289 42.5247 32.3984 42.582C27.901 42.582 24.75 38.056 22.9453 29.0039C22.2578 24.5781 21.9141 21.3411 21.9141 19.293L21.8281 19.207H21.7422V19.293C21.7422 22.9167 21.1406 28.5885 19.9375 36.3086C19.25 40.1042 18.4479 43.0547 17.5312 45.1602C15.9271 48.7695 13.4635 50.5742 10.1406 50.5742C7.3763 50.5742 4.88411 49.3138 2.66406 46.793C1.16016 44.3581 0.272135 41.694 0 38.8008C0.10026 38.1706 0.24349 37.8555 0.429688 37.8555H0.515625C1.0599 37.8555 1.66146 39.0299 2.32031 41.3789C3.72396 44.7591 5.92969 46.4492 8.9375 46.4492C12.9193 46.4492 15.6693 43.6706 17.1875 38.1133C17.7604 36.7956 18.3906 33.9596 19.0781 29.6055C19.7656 25.7956 20.3958 19.207 20.9688 9.83984C21.1263 4.05339 21.5273 1.16016 22.1719 1.16016L22.4297 0.988281Z" fill="#6F02AE"></path><path d="M58.6094 17.2734H59.6406C63.3073 17.2734 66.1146 18.5052 68.0625 20.9688C69.0365 22.6016 69.5234 24.4635 69.5234 26.5547C69.5234 27.901 69.0938 30.7656 68.2344 35.1484L68.1484 36.2656C68.349 38.5286 68.8932 39.7031 69.7812 39.7891H69.8672L70.9844 39.3594H71.1562C71.4427 39.4883 71.5859 39.7747 71.5859 40.2188C71.3138 41.5938 70.4831 42.2812 69.0938 42.2812H68.8359C67.5898 42.2812 66.7591 41.2786 66.3438 39.2734L66.1719 37.4688C66.3438 35.6784 66.7734 32.8138 67.4609 28.875V27.3281C67.4609 23.862 65.599 21.5417 61.875 20.3672C60.6862 20.0807 59.4831 19.9375 58.2656 19.9375C56.2604 19.9375 55.2578 20.224 55.2578 20.7969C54.2839 23.3177 53.7969 25.0078 53.7969 25.8672C56.2461 28.8034 58.0794 31.0951 59.2969 32.7422C60.099 34.2031 60.5 35.6354 60.5 37.0391C60.5 39.1589 59.5833 40.8203 57.75 42.0234C57.0339 42.3099 56.4323 42.4531 55.9453 42.4531C53.5534 42.4531 52.0065 40.6198 51.3047 36.9531C51.0755 35.5781 50.9323 34.1458 50.875 32.6562C50.9896 30.1784 51.1901 28.3451 51.4766 27.1562C50.4453 25.724 49.9297 24.4349 49.9297 23.2891C49.9297 20.7969 51.7344 18.9349 55.3438 17.7031C56.5326 17.4167 57.6211 17.2734 58.6094 17.2734ZM51.9922 22.4297L52.3359 23.5469H52.4219C52.4219 23.3034 52.7083 22.444 53.2812 20.9688C52.4219 21.3841 51.9922 21.8711 51.9922 22.4297ZM53.2812 29.6484L53.1953 31.3672V33.1719C53.1953 37.6406 54.3698 39.875 56.7188 39.875H57.1484C57.9505 39.7174 58.3516 39.1159 58.3516 38.0703V37.9844C58.3516 36.0794 57.0625 33.7591 54.4844 31.0234L53.2812 29.6484Z" fill="#820000"></path><path d="M92.8555 19.5078C94.9036 19.5078 96.8229 20.5677 98.6133 22.6875C99.401 23.7474 99.888 24.9792 100.074 26.3828H100.246C102.967 22.6016 105.173 20.7109 106.863 20.7109C107.651 20.7109 108.109 21.3411 108.238 22.6016V22.6875C108.238 23.7617 107.637 26.3112 106.434 30.3359L105.832 32.5703V32.6562H105.918C107.938 25.724 109.828 22.2578 111.59 22.2578H111.762C112.163 22.4583 112.363 22.9453 112.363 23.7188L112.105 29.3047C112.105 38.5716 115.171 44.7018 121.301 47.6953L121.816 48.125V48.2109C121.816 48.3255 121.73 48.3828 121.559 48.3828C113.996 44.8164 110.215 39.2305 110.215 31.625L110.473 25.8672V25.7812H110.387C109.241 27.9583 107.866 31.5391 106.262 36.5234C105.803 37.4401 105.288 38.013 104.715 38.2422H104.543C103.855 38.2422 103.512 37.6979 103.512 36.6094H103.426C103.426 35.7786 104.228 32.1406 105.832 25.6953C106.061 24.793 106.176 24.0482 106.176 23.4609V23.1172C104.486 23.819 102.509 25.8242 100.246 29.1328C100.246 31.4245 99.3008 34.4323 97.4102 38.1562C95.6628 40.9635 94.4883 42.3672 93.8867 42.3672C93.4857 42.1667 93.2852 41.9375 93.2852 41.6797C93.8867 37.9557 94.918 34.7474 96.3789 32.0547C96.6654 31.4245 97.3242 30.3073 98.3555 28.7031C98.3555 26.8411 97.4388 25.0078 95.6055 23.2031C94.2878 22.5156 93.2565 22.1719 92.5117 22.1719C90.1628 22.1719 88.9883 23.6042 88.9883 26.4688C88.9883 28.1589 89.5326 29.8776 90.6211 31.625V31.7109C90.3919 32.8568 89.9622 33.4297 89.332 33.4297H89.1602C88.0143 32.1406 87.4414 30.2786 87.4414 27.8438C87.5703 23.5612 88.9167 20.8685 91.4805 19.7656L92.8555 19.5078ZM98.0117 32.4844C97.2526 33.9167 96.5078 35.7214 95.7773 37.8984V37.9844H95.8633C96.8516 36.3086 97.5964 34.5039 98.0977 32.5703V32.4844H98.0117Z" fill="#CA3D3D"></path><path d="M130.238 19.25C131.871 19.25 132.988 20.0521 133.59 21.6562L133.762 23.375C133.762 27.7578 129.264 31.3958 120.27 34.2891C121.387 37.8984 124.022 39.7031 128.176 39.7031C131.398 39.7031 134.32 38.2995 136.941 35.4922L137.027 35.5781V35.6641C133.819 40.1901 130.124 42.4531 125.941 42.4531C123.191 42.4531 120.842 41.1641 118.895 38.5859C117.921 37.125 117.434 35.3776 117.434 33.3438C117.434 29.319 119.152 25.6523 122.59 22.3438C125.569 20.2812 128.118 19.25 130.238 19.25ZM120.012 32.3984C127.632 29.9779 131.441 27.3424 131.441 24.4922C131.441 22.931 130.697 22.043 129.207 21.8281H128.949C126.844 21.8281 124.438 23.3177 121.73 26.2969C120.585 28.4453 120.012 30.4792 120.012 32.3984Z" fill="#85BC98"></path><path d="M140.465 20.1953C140.751 20.2956 140.895 20.4388 140.895 20.625L140.035 35.9219H140.98C144.146 35.9219 147.383 34.0885 150.691 30.4219C151.622 29.2904 152.31 27.4857 152.754 25.0078C153.728 21.9141 154.587 20.3672 155.332 20.3672H155.848C156.134 20.5104 156.277 20.7396 156.277 21.0547C154.73 24.8216 153.957 28.0586 153.957 30.7656C153.957 33.9883 154.988 37.1107 157.051 40.1328L157.137 40.4766C156.75 41.8516 156.206 42.5391 155.504 42.5391C154.988 42.5391 154.1 41.0781 152.84 38.1562C152.095 36.194 151.723 34.1602 151.723 32.0547H151.637C149.345 35.1341 146.337 37.2826 142.613 38.5C141.51 38.7292 140.565 38.8438 139.777 38.8438V38.9297C139.777 41.7943 139.462 43.4557 138.832 43.9141C138.345 44.3724 137.944 44.6016 137.629 44.6016C137.4 44.487 137.285 44.3438 137.285 44.1719L138.746 21.7422C139.448 20.7109 140.021 20.1953 140.465 20.1953Z" fill="#407197"></path><path d="M175.57 19.5938C176.415 19.5938 176.902 20.3958 177.031 22V22.8594C177.031 25.6667 175.198 29.9062 171.531 35.5781C172.477 37.6836 173.852 39.0872 175.656 39.7891C176.158 40.0182 177.074 40.2188 178.406 40.3906C178.578 40.6055 178.664 40.806 178.664 40.9922V41.0781C178.664 42.0091 178.148 42.6966 177.117 43.1406H176.945C174.424 43.1406 172.247 41.9089 170.414 39.4453C169.956 38.7721 169.727 38.3424 169.727 38.1562C167.163 41.0208 164.957 42.4531 163.109 42.4531H162.852C160.431 42.4531 158.712 40.7057 157.695 37.2109C157.523 36.3372 157.438 35.4492 157.438 34.5469V34.4609C157.438 30.9518 158.44 26.569 160.445 21.3125L160.875 20.9688H161.047L161.219 21.1406V21.3984C160.073 25.1224 159.5 28.3594 159.5 31.1094C159.5 35.2201 160.388 37.9128 162.164 39.1875L163.023 39.3594H163.367C164.914 39.3594 166.747 38.1562 168.867 35.75C168.581 34.7617 168.438 33.6445 168.438 32.3984V31.9688C168.438 26.2682 170.443 22.2292 174.453 19.8516L175.57 19.5938ZM170.586 30.7656L170.844 33.1719H170.93C173.236 29.3477 174.525 26.1966 174.797 23.7188V23.375C174.754 22.8021 174.582 22.5156 174.281 22.5156C173.493 22.5156 172.605 23.5755 171.617 25.6953C170.93 27.3568 170.586 29.0469 170.586 30.7656Z" fill="#297C45"></path><path d="M205.648 19.0996C205.935 19.1855 206.078 19.3861 206.078 19.7012V20.3027L205.734 26.5762V29.584C205.734 36.3444 207.081 39.7246 209.773 39.7246C210.404 39.7246 210.719 40.0397 210.719 40.6699C210.447 41.9303 209.816 42.5605 208.828 42.5605H208.742C206.25 42.5605 204.617 40.4121 203.844 36.1152L203.758 35.2559L202.555 38.5215C201.065 41.8444 199.404 43.5059 197.57 43.5059H197.312C194.72 43.5059 193.173 40.5553 192.672 34.6543L192.5 33.2793H192.414C191.096 37.6908 189.148 41.0423 186.57 43.334C184.809 45.0527 183.147 45.9121 181.586 45.9121C180.254 45.9121 179.337 45.0527 178.836 43.334L178.578 40.9277C178.578 39.2376 179.094 38.2064 180.125 37.834C180.125 37.7337 180.268 37.6764 180.555 37.6621L180.898 38.0059V39.9824C180.898 42.0449 181.471 43.0762 182.617 43.0762C184.365 43.0762 186.37 41.2142 188.633 37.4902C189.65 35.3991 190.48 33.1361 191.125 30.7012C191.698 27.9082 192.156 24.8717 192.5 21.5918C192.973 20.847 193.488 20.4746 194.047 20.4746H194.219C194.505 20.6465 194.648 20.8757 194.648 21.1621L194.477 24.5996V26.1465C194.477 32.0189 194.935 36.1725 195.852 38.6074C196.496 39.9824 197.327 40.6699 198.344 40.6699C200.12 40.6699 201.667 36.8887 202.984 29.3262C203.385 26.6621 203.701 23.7689 203.93 20.6465C204.632 19.6152 205.204 19.0996 205.648 19.0996Z" fill="#E488CA"></path><path d="M220.645 21.3125V21.3984L220.73 21.3125C222.535 21.3125 223.824 22.401 224.598 24.5781L224.684 25.4375C224.684 26.3255 224.368 27.099 223.738 27.7578H223.652V27.6719C223.652 26.0964 222.764 25.0078 220.988 24.4062L220.215 24.3203H219.699C217.121 24.3203 215.03 26.0391 213.426 29.4766C213.025 30.6224 212.824 31.7109 212.824 32.7422C212.824 35.263 213.827 37.1823 215.832 38.5C216.835 39.0729 218.009 39.3594 219.355 39.3594C222.807 39.3594 225.214 38.2995 226.574 36.1797H226.66L226.832 36.3516C226.832 38.099 225.6 39.7604 223.137 41.3359C221.432 42.0807 219.914 42.4531 218.582 42.4531C215.46 42.4531 213.139 40.6771 211.621 37.125C211.163 35.8789 210.934 34.5612 210.934 33.1719C210.934 28.7318 212.824 25.1797 216.605 22.5156C218.324 21.7135 219.671 21.3125 220.645 21.3125Z" fill="#141A89"></path><path d="M243.633 18.9922C245.652 18.9922 247.027 19.9661 247.758 21.9141V22C247.844 22 248.073 21.5417 248.445 20.625C248.818 20.2669 249.133 20.0664 249.391 20.0234C249.792 20.0234 250.049 20.3385 250.164 20.9688L248.445 24.4062C247.529 26.6836 247.07 28.8607 247.07 30.9375C247.07 34.4323 248.159 37.0677 250.336 38.8438C251.51 39.5312 252.799 39.875 254.203 39.875C257.025 39.875 258.801 38.8438 259.531 36.7812H259.703V36.8672C259.703 39.2448 258.786 40.8203 256.953 41.5938C256.022 42.1094 255.105 42.3672 254.203 42.3672H253.602C251.009 42.3672 248.832 40.7917 247.07 37.6406C246.44 36.1367 246.125 34.1602 246.125 31.7109V31.625L246.211 30.8516V30.7656H246.125C244.879 35.9792 243.676 39.5026 242.516 41.3359C240.124 45.0026 237.488 46.8359 234.609 46.8359C232.003 46.8359 230.37 45.375 229.711 42.4531C229.596 42.2096 229.539 41.7513 229.539 41.0781V40.0469C229.625 39.0156 229.797 38.5 230.055 38.5H230.141C230.327 38.5 230.441 39.1302 230.484 40.3906C230.599 41.25 231.229 42.2812 232.375 43.4844C232.962 43.8281 233.621 44 234.352 44C236.844 44 239.25 42.2812 241.57 38.8438C242.487 37.4688 243.461 35.2057 244.492 32.0547V31.8828C243.246 32.9714 241.842 33.5156 240.281 33.5156C237.961 33.5156 236.414 32.0833 235.641 29.2188L235.555 28.0156V27.4141C235.555 24.1771 237.216 21.599 240.539 19.6797C241.642 19.2214 242.673 18.9922 243.633 18.9922ZM237.531 27.3281V27.9297C237.531 29.8346 238.677 30.9518 240.969 31.2812C243.49 31.2812 245.38 29.2188 246.641 25.0938L246.812 23.6328C246.812 22.1003 246.154 21.0404 244.836 20.4531L243.805 20.2812C241.799 20.2812 239.966 21.5703 238.305 24.1484C237.789 25.3229 237.531 26.3828 237.531 27.3281Z" fill="#FFB5A2"></path><path d="M268.318 0C268.805 0.229167 269.12 2.69271 269.264 7.39062C269.264 14.4948 269.063 22.3151 268.662 30.8516C268.046 31.9974 267.445 32.5703 266.857 32.5703C266.571 32.4701 266.428 32.2982 266.428 32.0547C266.829 21.4557 267.029 14.3516 267.029 10.7422H267.115L267.029 10.6562V8.50781C267.029 6.28776 266.829 4.16797 266.428 2.14844C266.857 0.716146 267.488 0 268.318 0ZM267.287 37.125C268.275 37.125 269.02 37.9557 269.521 39.6172V40.5625C269.307 41.8229 268.762 42.4531 267.889 42.4531H267.803C266.628 42.4531 265.883 41.4792 265.568 39.5312V39.3594C265.755 37.8698 266.327 37.125 267.287 37.125Z" fill="#141A89"></path></svg> 