<?xml version="1.0" encoding="UTF-8"?> <svg xmlns="http://www.w3.org/2000/svg" width="156" height="45" viewBox="0 0 156 45" fill="none"><path d="M36.5723 0C37.1419 0.478516 37.8255 2.1875 38.623 5.12695C39.3066 8.36263 39.6484 10.9147 39.6484 12.7832C43.4993 14.0934 47.0312 15.8708 50.2441 18.1152C51.5544 18.89 53.3773 20.5306 55.7129 23.0371C57.4674 25.1449 58.5156 27.2412 58.8574 29.3262V32.6074C58.8574 33.8721 58.0599 35.6494 56.4648 37.9395C54.79 39.7168 52.762 40.6055 50.3809 40.6055H50.2441C46.7806 40.6055 42.5423 38.6003 37.5293 34.5898C36.5153 38.6914 34.8519 40.7422 32.5391 40.7422H32.1973C30.6136 40.7422 29.3831 39.9219 28.5059 38.2812C28.2324 37.7002 28.0957 37.1305 28.0957 36.5723V35.957C28.0957 33.9632 29.0755 32.2998 31.0352 30.9668C31.8669 30.5111 32.6872 30.2832 33.4961 30.2832C34.3848 30.2832 35.5013 30.5339 36.8457 31.0352V30.9668C37.5293 26.6715 37.8711 22.4788 37.8711 18.3887L37.8027 15.1074C35.2962 14.2188 31.6048 13.3984 26.7285 12.6465C22.4788 12.0085 18.8102 11.6895 15.7227 11.6895H13.8086C7.5651 11.6895 3.69141 12.5553 2.1875 14.2871C1.95964 14.8226 1.8457 15.1872 1.8457 15.3809C1.8457 17.9557 3.62305 19.7559 7.17773 20.7812L7.65625 21.123V21.3281C7.65625 21.5104 7.38281 21.6016 6.83594 21.6016C5.06999 21.6016 3.15592 20.6901 1.09375 18.8672C0.364583 17.8988 0 17.0101 0 16.2012V15.4492C0 12.9085 2.11914 11.0628 6.35742 9.91211C8.69303 9.36523 11.7008 9.0918 15.3809 9.0918C23.584 9.0918 30.9896 10.0944 37.5977 12.0996C37.3698 9.22852 36.9596 6.74479 36.3672 4.64844L35.2734 1.91406C35.5355 0.638021 35.9684 0 36.5723 0ZM39.7168 15.791C39.7168 21.3167 39.2383 26.6488 38.2812 31.7871L44.502 35.957C47.1452 37.4154 49.4466 38.1445 51.4062 38.1445C54.0267 38.1445 55.8268 36.6862 56.8066 33.7695C56.9434 33.2227 57.0117 32.7214 57.0117 32.2656V31.8555C57.0117 28.5059 54.8698 25.1107 50.5859 21.6699C48.4554 20.0863 46.359 18.7874 44.2969 17.7734C42.9753 17.1354 41.4486 16.4746 39.7168 15.791ZM30.0098 34.9316C30.0098 36.1735 30.6022 37.1533 31.7871 37.8711C32.3568 38.099 32.8125 38.2129 33.1543 38.2129H33.4277C34.4417 38.2129 35.376 36.7318 36.2305 33.7695C35.2393 33.2227 34.2139 32.9492 33.1543 32.9492H32.9492C31.32 32.9492 30.363 33.4733 30.0781 34.5215L30.0098 34.9316Z" fill="#820000"></path><path d="M72.1533 22.2852C73.4521 22.2852 74.3408 22.9232 74.8193 24.1992L74.9561 25.5664C74.9561 29.0527 71.3786 31.9466 64.2236 34.248C65.1123 37.1191 67.2087 38.5547 70.5127 38.5547C73.0762 38.5547 75.4004 37.4382 77.4854 35.2051L77.5537 35.2734V35.3418C75.0016 38.9421 72.0622 40.7422 68.7354 40.7422C66.5479 40.7422 64.6794 39.7168 63.1299 37.666C62.3551 36.5039 61.9678 35.1139 61.9678 33.4961C61.9678 30.2946 63.335 27.3779 66.0693 24.7461C68.4391 23.1055 70.4671 22.2852 72.1533 22.2852ZM64.0186 32.7441C70.0798 30.8187 73.1104 28.7223 73.1104 26.4551C73.1104 25.2132 72.5179 24.5068 71.333 24.3359H71.1279C69.4531 24.3359 67.5391 25.5208 65.3857 27.8906C64.4743 29.5996 64.0186 31.2174 64.0186 32.7441Z" fill="#297C45"></path><path d="M78.9893 19.9609C79.5361 19.9609 80.2197 21.0319 81.04 23.1738C81.3135 24.1309 81.4502 25.1107 81.4502 26.1133V27.3438H81.5186C81.6895 26.8311 82.3047 26.0791 83.3643 25.0879C84.4922 24.1764 85.5632 23.7207 86.5771 23.7207C87.8418 23.7207 88.9583 24.541 89.9268 26.1816L90.0635 26.8652H90.1318C90.9294 25.0423 92.0231 24.1309 93.4131 24.1309C95.2132 24.1309 96.4209 24.86 97.0361 26.3184C97.4007 27.1729 97.583 28.335 97.583 29.8047V32.9492C97.583 36.1507 98.2894 37.9281 99.7021 38.2812C100.659 38.3724 101.138 38.6003 101.138 38.9648V39.1699C100.898 40.2181 100.465 40.7422 99.8389 40.7422C98.5173 40.7422 97.4463 40.0358 96.626 38.623C96.1247 37.4268 95.874 36.1279 95.874 34.7266L96.2158 30.2832C96.2158 28.0046 95.4411 26.8652 93.8916 26.8652H93.6865C92.3421 26.8652 91.5218 27.5716 91.2256 28.9844C90.5306 36.3672 90.0749 40.0586 89.8584 40.0586C89.4824 40.5143 89.0951 40.7422 88.6963 40.7422C88.4684 40.6283 88.3545 40.446 88.3545 40.1953C88.7646 36.8001 88.9697 34.3164 88.9697 32.7441C88.9697 29.5199 88.4229 27.4463 87.3291 26.5234C86.9303 26.3411 86.5202 26.25 86.0986 26.25H85.7568C82.9313 26.25 81.0628 29.3945 80.1514 35.6836C79.707 38.6914 79.388 40.1953 79.1943 40.1953C78.807 40.5599 78.488 40.7422 78.2373 40.7422C78.0094 40.7422 77.8499 40.5599 77.7588 40.1953L79.6045 28.4375L79.6729 27.207C79.6729 25.179 79.0348 23.3789 77.7588 21.8066V21.5332C77.7588 20.8496 78.1689 20.3255 78.9893 19.9609Z" fill="#673A81"></path><path d="M109.785 24.2676H110.059C112.246 24.2676 113.75 25.5436 114.57 28.0957L114.707 28.916H114.775C115.721 26.9108 116.496 25.9082 117.1 25.9082C117.191 25.9082 117.236 25.9766 117.236 26.1133C116.017 27.9362 115.288 29.9642 115.049 32.1973C114.775 33.3822 114.639 34.4076 114.639 35.2734C114.639 36.6634 115.208 37.5977 116.348 38.0762C117.646 38.2926 118.376 38.4749 118.535 38.623L118.74 39.2383C118.74 39.7852 118.307 40.1042 117.441 40.1953C115.653 40.1953 114.422 39.2839 113.75 37.4609C113.602 36.6862 113.488 36.2988 113.408 36.2988C111.938 39.2611 109.819 40.7422 107.051 40.7422C104.704 40.7422 102.972 39.5801 101.855 37.2559C101.491 36.4128 101.309 35.5241 101.309 34.5898V34.1797C101.309 30.9554 102.721 28.1755 105.547 25.8398C106.994 24.7917 108.407 24.2676 109.785 24.2676ZM103.154 33.1543V33.5645C103.154 36.014 104.316 37.5407 106.641 38.1445L107.803 38.2812C110.275 38.2812 112.007 36.6634 112.998 33.4277L113.203 31.377C113.203 28.7337 112.246 27.0931 110.332 26.4551C109.854 26.3184 109.375 26.25 108.896 26.25H108.486C106.253 26.25 104.544 27.9818 103.359 31.4453C103.223 32.0719 103.154 32.6416 103.154 33.1543Z" fill="#E6BBC8"></path><path d="M128.755 23.9258C129.051 23.9258 129.37 24.7689 129.712 26.4551C131.227 31.4909 133.005 35.0684 135.044 37.1875C135.978 37.9281 137.049 38.361 138.257 38.4863L138.462 38.8965C138.211 40.127 137.733 40.7422 137.026 40.7422C133.984 40.7422 131.387 37.8939 129.233 32.1973L128.413 29.5996H128.345C128.345 30.4655 127.479 32.9948 125.747 37.1875C124.665 39.4206 123.275 41.6536 121.577 43.8867C121.372 44.069 121.167 44.1602 120.962 44.1602C120.643 44.0234 120.483 43.7956 120.483 43.4766V43.2031C120.483 42.7702 121.053 41.8359 122.192 40.4004C123.56 38.1445 124.676 35.8431 125.542 33.4961C126.681 29.8275 127.251 27.2982 127.251 25.9082C127.319 25.4525 127.456 25.0423 127.661 24.6777C128.151 24.1764 128.516 23.9258 128.755 23.9258Z" fill="#85BC98"></path><path d="M153.125 22.5586C153.797 22.5586 154.185 23.1966 154.287 24.4727V25.1562C154.287 27.3893 152.829 30.7617 149.912 35.2734C150.664 36.9482 151.758 38.0648 153.193 38.623C153.592 38.8053 154.321 38.9648 155.381 39.1016C155.518 39.2725 155.586 39.432 155.586 39.5801V39.6484C155.586 40.389 155.176 40.9359 154.355 41.2891H154.219C152.214 41.2891 150.482 40.3092 149.023 38.3496C148.659 37.8141 148.477 37.4723 148.477 37.3242C146.437 39.6029 144.683 40.7422 143.213 40.7422H143.008C141.082 40.7422 139.715 39.3522 138.906 36.5723C138.77 35.8773 138.701 35.1709 138.701 34.4531V34.3848C138.701 31.5934 139.499 28.1071 141.094 23.9258L141.436 23.6523H141.572L141.709 23.7891V23.9941C140.798 26.9564 140.342 29.5312 140.342 31.7188C140.342 34.9886 141.048 37.1305 142.461 38.1445L143.145 38.2812H143.418C144.648 38.2812 146.107 37.3242 147.793 35.4102C147.565 34.624 147.451 33.7354 147.451 32.7441V32.4023C147.451 27.8678 149.046 24.6549 152.236 22.7637L153.125 22.5586ZM149.16 31.4453L149.365 33.3594H149.434C151.268 30.3174 152.293 27.8109 152.51 25.8398V25.5664C152.476 25.1107 152.339 24.8828 152.1 24.8828C151.473 24.8828 150.767 25.7259 149.98 27.4121C149.434 28.7337 149.16 30.0781 149.16 31.4453Z" fill="#859FB4"></path></svg> 