<?xml version="1.0" encoding="UTF-8"?> <svg xmlns="http://www.w3.org/2000/svg" width="140" height="21" viewBox="0 0 140 21" fill="none"><path d="M0 17.3555C0.046875 16.0508 0.0898438 13.4531 0.128906 9.5625C0.167969 5.67188 0.246094 2.77344 0.363281 0.867188L1.41797 1.10156C1.62891 5.21875 1.75 7.78125 1.78125 8.78906C2.27344 8.75 4.07031 8.58984 7.17188 8.30859C7.17969 8.30859 7.1875 8.23047 7.19531 8.07422C7.20312 7.91797 7.20703 7.28516 7.20703 6.17578C7.21484 5.05859 7.21875 3.38281 7.21875 1.14844L8.56641 0.867188C8.77734 2.53906 8.91797 4.34766 8.98828 6.29297C9.06641 8.23828 9.11719 10.2812 9.14062 12.4219C9.17188 14.5625 9.23828 16.3594 9.33984 17.8125C9.24609 18.1328 9.08984 18.3438 8.87109 18.4453C8.65234 18.5547 8.42969 18.5664 8.20312 18.4805C7.97656 18.4023 7.76953 18.2578 7.58203 18.0469C7.39453 17.8438 7.27344 17.6133 7.21875 17.3555C7.23438 16.5352 7.23828 15.2969 7.23047 13.6406C7.23047 11.9766 7.23438 10.7344 7.24219 9.91406C6.96094 9.92969 6.35938 9.97656 5.4375 10.0547C4.52344 10.1328 3.92188 10.1758 3.63281 10.1836C3.34375 10.1914 2.72656 10.1875 1.78125 10.1719C1.80469 11.1172 1.85938 12.4648 1.94531 14.2148C2.03125 15.957 2.08594 17.1562 2.10938 17.8125C2.01562 18.1328 1.85938 18.3438 1.64062 18.4453C1.42188 18.5547 1.19922 18.5664 0.972656 18.4805C0.753906 18.4023 0.550781 18.2578 0.363281 18.0469C0.175781 17.8438 0.0546875 17.6133 0 17.3555ZM9.67969 17.1094C10.1797 15.2812 11.0859 12.5977 12.3984 9.05859C13.7188 5.51953 14.6367 2.83594 15.1523 1.00781L16.9336 1.125C17.2227 2.375 17.6172 3.74609 18.1172 5.23828C18.6172 6.73047 19.1016 8.0625 19.5703 9.23438C20.0391 10.3984 20.5352 11.7266 21.0586 13.2188C21.582 14.7109 21.9961 16.0664 22.3008 17.2852C22.3242 17.5977 22.2891 17.8633 22.1953 18.082C22.1016 18.3086 21.9766 18.457 21.8203 18.5273C21.6719 18.6055 21.5117 18.6328 21.3398 18.6094C21.1758 18.5859 21.0195 18.4922 20.8711 18.3281C20.7305 18.1641 20.6328 17.9492 20.5781 17.6836C20.5 17.332 20.3945 16.9492 20.2617 16.5352C20.1289 16.1211 20.0234 15.8086 19.9453 15.5977C19.875 15.3867 19.7383 15.0156 19.5352 14.4844C19.332 13.9453 19.2148 13.6367 19.1836 13.5586C17.043 13.2695 15.0273 13.0234 13.1367 12.8203C12.9336 13.375 12.6758 14.2891 12.3633 15.5625C12.0586 16.8359 11.8281 17.7109 11.6719 18.1875C11.4688 18.4297 11.2383 18.5664 10.9805 18.5977C10.7305 18.6289 10.5078 18.5781 10.3125 18.4453C10.1172 18.3125 9.95312 18.125 9.82031 17.8828C9.69531 17.6328 9.64844 17.375 9.67969 17.1094ZM13.3477 11.6836C14.0664 11.6914 14.7109 11.6914 15.2812 11.6836C15.8516 11.6758 16.4727 11.6836 17.1445 11.707C17.8242 11.7227 18.4336 11.7578 18.9727 11.8125C17.3555 8.34375 16.3555 5.53516 15.9727 3.38672C15.6602 5.19141 14.7852 7.95703 13.3477 11.6836ZM23.25 18.1875C23.3047 16.5 23.3828 13.625 23.4844 9.5625C23.5938 5.5 23.6758 2.625 23.7305 0.9375L24.7852 1.17188C24.832 2.79688 24.8945 5.39062 24.9727 8.95312C25.0508 12.5078 25.1133 15.082 25.1602 16.6758C25.5664 16.6602 26.1836 16.6328 27.0117 16.5938C27.8398 16.5547 28.457 16.5273 28.8633 16.5117C28.918 14.8086 29.0156 12.1719 29.1562 8.60156C29.3047 5.03125 29.4062 2.49219 29.4609 0.984375L30.5156 1.21875C30.5625 2.82812 30.625 5.37891 30.7031 8.87109C30.7891 12.3555 30.8555 14.8711 30.9023 16.418C32.0742 16.3477 33.3047 16.2891 34.5938 16.2422C34.6484 14.5547 34.75 11.9375 34.8984 8.39062C35.0469 4.84375 35.1484 2.32031 35.2031 0.820312L36.2578 1.05469C36.2188 5.50781 36.2344 9.29297 36.3047 12.4102C36.3828 15.5195 36.4141 17.3828 36.3984 18C35.2578 18.1328 32.9336 18.2188 29.4258 18.2578C25.918 18.2969 23.8594 18.2734 23.25 18.1875ZM37.125 2.01562L38.3555 0.867188C39.0742 2.03125 39.9727 3.82813 41.0508 6.25781C42.1367 8.6875 42.8633 10.2578 43.2305 10.9688C44.7461 7.04688 45.9219 3.84766 46.7578 1.37109C46.9141 1.08203 47.1016 0.902344 47.3203 0.832031C47.5391 0.761719 47.7422 0.78125 47.9297 0.890625C48.1172 1 48.2773 1.17188 48.4102 1.40625C48.5508 1.63281 48.6289 1.88281 48.6445 2.15625C48.1289 3.25 47.2891 5.10156 46.125 7.71094C44.9609 10.3203 43.9805 12.4336 43.1836 14.0508C42.3867 15.668 41.5352 17.2305 40.6289 18.7383L39.1172 18.457C40.0859 16.4727 41.0938 14.4883 42.1406 12.5039C41.9609 11.9961 41.7305 11.4258 41.4492 10.793C41.1758 10.1523 40.8125 9.375 40.3594 8.46094C39.9141 7.54688 39.5742 6.85547 39.3398 6.38672C39.1133 5.91797 38.7031 5.10547 38.1094 3.94922C37.5234 2.79297 37.1953 2.14844 37.125 2.01562ZM56.2969 13.5234C55.9688 12.4062 55.8086 11.2773 55.8164 10.1367C55.8242 8.99609 55.9375 7.875 56.1562 6.77344C56.3828 5.66406 56.7148 4.54297 57.1523 3.41016C57.4414 2.66797 57.8789 2.08984 58.4648 1.67578C59.0586 1.25391 59.6992 1.00781 60.3867 0.9375C61.082 0.859375 61.8164 0.882812 62.5898 1.00781C63.3633 1.13281 64.082 1.33203 64.7461 1.60547C65.418 1.87109 66.0156 2.17578 66.5391 2.51953L65.6016 3.59766C64.8906 3.07422 64.1719 2.69922 63.4453 2.47266C62.7188 2.24609 62.0234 2.19531 61.3594 2.32031C60.7031 2.4375 60.1094 2.71094 59.5781 3.14062C59.0547 3.5625 58.6211 4.19922 58.2773 5.05078C57.9414 5.90234 57.7422 6.91406 57.6797 8.08594C57.6875 8.47656 57.6836 8.97266 57.668 9.57422C57.6602 10.168 57.6602 10.6016 57.668 10.875C57.6758 11.1484 57.7109 11.5117 57.7734 11.9648C57.8359 12.4102 57.9492 12.8555 58.1133 13.3008C58.2852 13.7461 58.5156 14.2578 58.8047 14.8359C59 15.2188 59.207 15.5508 59.4258 15.832C59.6523 16.1055 59.8789 16.3359 60.1055 16.5234C60.3398 16.7031 60.5977 16.8359 60.8789 16.9219C61.1602 17.0078 61.4258 17.0664 61.6758 17.0977C61.9336 17.1289 62.2266 17.1172 62.5547 17.0625C62.8828 17 63.1836 16.9297 63.457 16.8516C63.7383 16.7734 64.0625 16.6602 64.4297 16.5117C64.8047 16.3555 65.1367 16.207 65.4258 16.0664C65.7148 15.9258 66.0625 15.7539 66.4688 15.5508C66.5938 15.7227 66.6953 15.8828 66.7734 16.0312C66.8594 16.1719 66.9492 16.3516 67.043 16.5703C67.1445 16.7812 67.2227 16.9375 67.2773 17.0391C66.3945 17.6484 65.543 18.1211 64.7227 18.457C63.9102 18.793 63.082 18.9961 62.2383 19.0664C61.4023 19.1367 60.6016 18.9688 59.8359 18.5625C59.0703 18.1641 58.3828 17.5273 57.7734 16.6523C57.1172 15.6836 56.625 14.6406 56.2969 13.5234ZM68.3086 17.4023L68.4375 0.890625C68.5312 0.585938 68.7734 0.363281 69.1641 0.222656C69.5625 0.0742187 70.0078 0.0117188 70.5 0.0351562C71 0.0507812 71.4648 0.09375 71.8945 0.164062C72.3242 0.234375 72.6758 0.316406 72.9492 0.410156C73.418 0.558594 73.8477 0.734375 74.2383 0.9375C74.6367 1.14062 75.0117 1.38672 75.3633 1.67578C75.7148 1.96484 76 2.30859 76.2188 2.70703C76.4375 3.10547 76.5703 3.53906 76.6172 4.00781C76.6875 4.78906 76.5352 5.57812 76.1602 6.375C75.793 7.16406 75.3203 7.67188 74.7422 7.89844C75.2344 7.95312 75.7344 8.25781 76.2422 8.8125C76.75 9.35938 77.1641 10.0156 77.4844 10.7812C77.8125 11.5391 77.9883 12.25 78.0117 12.9141C78.1133 13.5859 78.043 14.2148 77.8008 14.8008C77.5586 15.3789 77.1953 15.8633 76.7109 16.2539C76.2266 16.6445 75.6719 16.9844 75.0469 17.2734C74.4219 17.5625 73.7656 17.7695 73.0781 17.8945C72.3984 18.0195 71.7461 18.0898 71.1211 18.1055C70.4961 18.1211 69.9297 18.0664 69.4219 17.9414C68.9219 17.8164 68.5508 17.6367 68.3086 17.4023ZM70.1133 1.67578C70.1367 2.38672 70.1523 3.0625 70.1602 3.70312C70.168 4.33594 70.1719 4.98828 70.1719 5.66016C70.1719 6.32422 70.1758 6.85156 70.1836 7.24219C71.7148 7.64844 72.918 7.47656 73.793 6.72656C74.418 6.17969 74.7461 5.46094 74.7773 4.57031C74.8086 3.70312 74.543 2.96484 73.9805 2.35547C73.2617 1.58203 72.2734 1.29297 71.0156 1.48828C70.7266 1.53516 70.4336 1.60547 70.1367 1.69922L70.1133 1.67578ZM70.1836 15.668C70.4414 15.9883 70.7734 16.2109 71.1797 16.3359C71.5859 16.4531 72.0078 16.4766 72.4453 16.4062C72.8828 16.3359 73.3242 16.1875 73.7695 15.9609C74.2227 15.7344 74.625 15.457 74.9766 15.1289C75.3281 14.8008 75.6133 14.4219 75.832 13.9922C76.0508 13.5547 76.1602 13.1133 76.1602 12.668C76.1602 11.9414 76 11.3125 75.6797 10.7812C75.3594 10.2422 74.9297 9.83984 74.3906 9.57422C73.8516 9.30859 73.2227 9.14453 72.5039 9.08203C71.7852 9.01172 71.0273 9.08203 70.2305 9.29297C70.2461 9.92578 70.2383 11.0156 70.207 12.5625C70.1836 14.1094 70.1758 15.1445 70.1836 15.668ZM79.0078 17.1094C79.5078 15.2812 80.4141 12.5977 81.7266 9.05859C83.0469 5.51953 83.9648 2.83594 84.4805 1.00781L86.2617 1.125C86.5508 2.375 86.9453 3.74609 87.4453 5.23828C87.9453 6.73047 88.4297 8.0625 88.8984 9.23438C89.3672 10.3984 89.8633 11.7266 90.3867 13.2188C90.9102 14.7109 91.3242 16.0664 91.6289 17.2852C91.6523 17.5977 91.6172 17.8633 91.5234 18.082C91.4297 18.3086 91.3047 18.457 91.1484 18.5273C91 18.6055 90.8398 18.6328 90.668 18.6094C90.5039 18.5859 90.3477 18.4922 90.1992 18.3281C90.0586 18.1641 89.9609 17.9492 89.9062 17.6836C89.8281 17.332 89.7227 16.9492 89.5898 16.5352C89.457 16.1211 89.3516 15.8086 89.2734 15.5977C89.2031 15.3867 89.0664 15.0156 88.8633 14.4844C88.6602 13.9453 88.543 13.6367 88.5117 13.5586C86.3711 13.2695 84.3555 13.0234 82.4648 12.8203C82.2617 13.375 82.0039 14.2891 81.6914 15.5625C81.3867 16.8359 81.1562 17.7109 81 18.1875C80.7969 18.4297 80.5664 18.5664 80.3086 18.5977C80.0586 18.6289 79.8359 18.5781 79.6406 18.4453C79.4453 18.3125 79.2812 18.125 79.1484 17.8828C79.0234 17.6328 78.9766 17.375 79.0078 17.1094ZM82.6758 11.6836C83.3945 11.6914 84.0391 11.6914 84.6094 11.6836C85.1797 11.6758 85.8008 11.6836 86.4727 11.707C87.1523 11.7227 87.7617 11.7578 88.3008 11.8125C86.6836 8.34375 85.6836 5.53516 85.3008 3.38672C84.9883 5.19141 84.1133 7.95703 82.6758 11.6836ZM92.6367 16.1953C92.6523 16.1953 92.9062 16.1914 93.3984 16.1836C93.8984 16.1758 94.1562 16.1719 94.1719 16.1719C94.5156 15.4688 94.8047 14.6992 95.0391 13.8633C95.2734 13.0273 95.4453 12.2383 95.5547 11.4961C95.6719 10.7461 95.7578 9.89062 95.8125 8.92969C95.875 7.96875 95.9102 7.13672 95.918 6.43359C95.9258 5.73047 95.9297 4.86719 95.9297 3.84375C95.9375 2.82031 95.9492 2.00391 95.9648 1.39453C97.5352 1.27734 99.9688 1.23828 103.266 1.27734C103.312 2.70703 103.398 5.16797 103.523 8.66016C103.656 12.1445 103.746 14.5781 103.793 15.9609C104.035 15.9844 104.289 16.0039 104.555 16.0195C104.82 16.0352 105.078 16.0547 105.328 16.0781C105.273 16.4766 105.258 17.2148 105.281 18.293C105.305 19.3711 105.289 20.1133 105.234 20.5195L104.18 20.2852C104.086 19.4883 103.844 18.6797 103.453 17.8594C101.234 17.6797 98.293 17.6797 94.6289 17.8594C94.4648 18.4688 94.2891 19.4531 94.1016 20.8125L93.0938 20.707C92.7188 18.9102 92.5664 17.4062 92.6367 16.1953ZM96.0703 16.0312C96.4922 16.0312 97.0859 16.043 97.8516 16.0664C98.6172 16.082 99.3086 16.0898 99.9258 16.0898C100.551 16.0898 101.137 16.0703 101.684 16.0312C101.73 14.5703 101.746 12.332 101.73 9.31641C101.715 6.29297 101.73 4.05078 101.777 2.58984C101.09 2.56641 100.652 2.55469 100.465 2.55469C100.285 2.55469 99.8633 2.57812 99.1992 2.625C98.543 2.67188 98.0977 2.69922 97.8633 2.70703C97.8086 3.44141 97.75 4.55078 97.6875 6.03516C97.6328 7.51172 97.5742 8.67578 97.5117 9.52734C97.457 10.3711 97.3086 11.4062 97.0664 12.6328C96.8242 13.8516 96.4922 14.9844 96.0703 16.0312ZM106.547 17.6836C106.586 16.4102 106.621 13.7656 106.652 9.75C106.691 5.73438 106.766 2.74219 106.875 0.773438L107.941 1.00781C107.996 1.88281 108.055 3.21094 108.117 4.99219C108.18 6.76562 108.215 7.77344 108.223 8.01562C109.012 7.92188 109.762 7.90234 110.473 7.95703C111.191 8.01172 111.848 8.15234 112.441 8.37891C113.035 8.59766 113.582 8.86719 114.082 9.1875C114.582 9.50781 115.004 9.88672 115.348 10.3242C115.699 10.7539 115.988 11.2031 116.215 11.6719C116.441 12.1406 116.578 12.6406 116.625 13.1719C116.68 13.6953 116.66 14.2148 116.566 14.7305C116.473 15.2383 116.277 15.75 115.98 16.2656C115.691 16.7734 115.312 17.2461 114.844 17.6836C114.43 18.0664 113.57 18.3125 112.266 18.4219C110.969 18.5391 109.73 18.5195 108.551 18.3633C107.371 18.207 106.703 17.9805 106.547 17.6836ZM108.34 9.77344C108.426 12.3828 108.508 14.6055 108.586 16.4414C111.539 16.7852 113.234 16.6875 113.672 16.1484C114.109 15.6094 114.41 15.0547 114.574 14.4844C114.738 13.9062 114.762 13.3672 114.645 12.8672C114.535 12.3672 114.312 11.8945 113.977 11.4492C113.648 11.0039 113.207 10.6445 112.652 10.3711C112.098 10.0898 111.461 9.88672 110.742 9.76172C110.031 9.63672 109.23 9.64062 108.34 9.77344ZM117.621 17.4023C117.668 16.0977 117.715 13.4766 117.762 9.53906C117.809 5.60156 117.891 2.64453 118.008 0.667969L126.023 0.867188L125.742 2.0625C124.93 2.11719 123.883 2.17969 122.602 2.25C121.328 2.3125 120.293 2.37109 119.496 2.42578C119.535 2.81641 119.543 3.69531 119.52 5.0625C119.496 6.42969 119.488 7.30859 119.496 7.69922C121.012 7.33203 122.344 7.31641 123.492 7.65234C124.641 7.98828 125.555 8.625 126.234 9.5625C126.922 10.4922 127.285 11.6094 127.324 12.9141C127.426 13.5859 127.355 14.2148 127.113 14.8008C126.871 15.3789 126.508 15.8633 126.023 16.2539C125.539 16.6445 124.984 16.9844 124.359 17.2734C123.734 17.5625 123.078 17.7695 122.391 17.8945C121.711 18.0195 121.059 18.0898 120.434 18.1055C119.809 18.1211 119.242 18.0664 118.734 17.9414C118.234 17.8164 117.863 17.6367 117.621 17.4023ZM119.496 15.668C119.754 15.9883 120.086 16.2109 120.492 16.3359C120.898 16.4531 121.32 16.4766 121.758 16.4062C122.195 16.3359 122.637 16.1875 123.082 15.9609C123.535 15.7344 123.938 15.457 124.289 15.1289C124.641 14.8008 124.926 14.4219 125.145 13.9922C125.363 13.5547 125.473 13.1133 125.473 12.668C125.473 11.6992 125.199 10.8711 124.652 10.1836C124.105 9.48828 123.375 9.01562 122.461 8.76562C121.547 8.50781 120.566 8.50781 119.52 8.76562C119.535 9.40625 119.531 10.5898 119.508 12.3164C119.492 14.043 119.488 15.1602 119.496 15.668ZM128.203 2.01562L129.434 0.867188C130.152 2.03125 131.051 3.82813 132.129 6.25781C133.215 8.6875 133.941 10.2578 134.309 10.9688C135.824 7.04688 137 3.84766 137.836 1.37109C137.992 1.08203 138.18 0.902344 138.398 0.832031C138.617 0.761719 138.82 0.78125 139.008 0.890625C139.195 1 139.355 1.17188 139.488 1.40625C139.629 1.63281 139.707 1.88281 139.723 2.15625C139.207 3.25 138.367 5.10156 137.203 7.71094C136.039 10.3203 135.059 12.4336 134.262 14.0508C133.465 15.668 132.613 17.2305 131.707 18.7383L130.195 18.457C131.164 16.4727 132.172 14.4883 133.219 12.5039C133.039 11.9961 132.809 11.4258 132.527 10.793C132.254 10.1523 131.891 9.375 131.438 8.46094C130.992 7.54688 130.652 6.85547 130.418 6.38672C130.191 5.91797 129.781 5.10547 129.188 3.94922C128.602 2.79297 128.273 2.14844 128.203 2.01562Z" fill="#820000"></path></svg> 